<?xml version="1.0" standalone="no"?>
<!DOCTYPE svg PUBLIC "-//W3C//DTD SVG 1.1//EN" "http://www.w3.org/Graphics/SVG/1.1/DTD/svg11.dtd" >
<svg>
<metadata>
Created by FontForge 20090622 at Thu Apr 21 07:39:03 2016
 By deploy user
Copr.1990, 1991, 1992, 1993 The Font Bureau, Inc.
</metadata>
<defs>
<font id="Eagle-Book" horiz-adv-x="854" >
  <font-face 
    font-family="Eagle Book"
    font-weight="500"
    font-stretch="normal"
    units-per-em="1000"
    panose-1="0 0 0 0 0 0 0 0 0 0"
    ascent="800"
    descent="-200"
    x-height="505"
    cap-height="678"
    bbox="-120.333 -225 1221 908.125"
    underline-thickness="20"
    underline-position="-123"
    unicode-range="U+0020-U+FB02"
  />
<missing-glyph horiz-adv-x="500" 
 />
    <glyph glyph-name=".notdef" horiz-adv-x="500" 
 />
    <glyph glyph-name=".null" horiz-adv-x="0" 
 />
    <glyph glyph-name="nonmarkingreturn" horiz-adv-x="333" 
 />
    <glyph glyph-name="space" unicode=" " horiz-adv-x="214" 
 />
    <glyph glyph-name="exclam" unicode="!" horiz-adv-x="336" 
d="M259 375q0 -4 -49 -147q-3 -10 -12 -10h-50q-13 0 -16 10q-48 140 -48 147q-5 155 0 298q0 10 8 10q77 2 157 0q7 0 7 -12q6 -126 3 -296zM259 11q0 -11 -10 -11h-151q-10 0 -10 11v153q0 12 10 12h151q10 0 10 -12v-153z" />
    <glyph glyph-name="quotedbl" unicode="&#x22;" horiz-adv-x="383" 
d="M346 681q0 -37 -2 -101t-2 -95t-21 -51t-34 -20t-33.5 20t-20.5 51t-2 95t-2 101q0 9 58 9q59 0 59 -9zM165 681q0 -37 -2 -101t-2 -95t-20.5 -51t-34.5 -20q-12 0 -33 20t-21 51t-2 95t-2 101q0 9 58 9q59 0 59 -9z" />
    <glyph glyph-name="numbersign" unicode="#" horiz-adv-x="615" 
d="M581 401q0 -3 -4 -6.5t-6 -3.5h-104l-12 -89h99q3 0 6.5 -3t3.5 -7v-80q0 -4 -3.5 -8.5t-7.5 -4.5h-116l-29 -188q-2 -12 -17 -12q-20 1 -85 1q-3 0 -7 4.5t-3 7.5l29 187h-86q-21 -128 -30 -188q-2 -11 -17 -11h-85q-3 0 -6.5 4.5t-2.5 7.5l29 187h-84q-3 0 -6.5 3
t-3.5 7v84q0 3 3.5 6t5.5 3h103l13 89h-99q-3 0 -6.5 3t-3.5 8v82q0 3 4 6.5t8 3.5h115q20 127 26 175q2 9 12 9h91q3 0 7 -3.5t3 -7.5l-27 -173h85l28 174q3 10 10 10h91q3 0 7 -3t3 -6l-27 -175h87q9 0 9 -8v-85zM355 391h-85l-14 -89h87z" />
    <glyph glyph-name="dollar" unicode="$" horiz-adv-x="607" 
d="M588 217q0 -108 -69 -165t-166 -66l-20 -2v-60h-60v60q-60 0 -123 26q-76 31 -109 99q-7 14 3 20l52.5 34.5l49.5 32.5q10 6 20 -6q42 -51 107 -64v124l-20 4q-208 35 -208 214q0 96 61 151t151 66l16 2v33h60v-33q67 0 132 -39q22 -13 44.5 -32.5t31.5 -36.5
q7 -12 -1 -17l-117 -72q-8 -5 -16 6q-13 17 -36.5 30.5t-37.5 16.5v-114l21 -3q234 -32 234 -209zM273 438v109q-69 -5 -69 -54q0 -22 12.5 -34t46.5 -19zM416 179q0 25 -16 37.5t-58 21.5l-9 2v-117q83 5 83 56z" />
    <glyph glyph-name="percent" unicode="%" horiz-adv-x="825" 
d="M801 174q0 -77 -52.5 -129t-134.5 -52q-83 0 -137 51.5t-54 129.5q0 77 54 129t136 52q83 0 135.5 -52t52.5 -129zM718 651l-326.5 -401t-200.5 -266q-14 1 -42 20.5t-27 28.5l320.5 387t206.5 267q16 -7 69 -36zM401 497q0 -77 -52.5 -129t-134.5 -52q-83 0 -137 52
t-54 129t53.5 129t136.5 52t135.5 -51.5t52.5 -129.5zM681 172q0 28 -20 49t-50 21t-50 -21t-20 -49t19.5 -48.5t50.5 -20.5q30 0 50 20.5t20 48.5zM281 497q0 28 -20 49t-50 21t-50 -21t-20 -49t19.5 -48.5t50.5 -20.5q30 0 50 20.5t20 48.5z" />
    <glyph glyph-name="ampersand" unicode="&#x26;" horiz-adv-x="672" 
d="M637 0h-167q-12 0 -19.5 7t-25.5 31q-4 5 -6 8q-28 -27 -75 -45t-99 -18q-100 0 -158.5 50.5t-58.5 141.5q0 90 45 142.5t127 85.5q-39 62 -39 115q0 83 60 128.5t145 45.5q60 0 100.5 -14t82.5 -56q12 -12 3 -25l-63 -77q-12 -14 -23 1q-30 39 -72 39q-55 0 -55 -45
q0 -31 50 -113l75 -123q46 84 55 105q2 5 32.5 -6.5t65.5 -30.5q9 -4 10.5 -9.5t-4.5 -16.5q-41 -95 -88 -154l100 -141q17 -26 2 -26zM356 141l-92 155q-34 -13 -53.5 -40t-19.5 -61q0 -80 82 -80q16 0 44.5 8.5t38.5 17.5z" />
    <glyph glyph-name="quotesingle" unicode="'" horiz-adv-x="254" 
d="M190 675q0 -1 -3 -202q-1 -31 -24 -52.5t-36 -21.5q-12 0 -35 21.5t-24 52.5q-4 65 -4 202q0 9 63 9t63 -9z" />
    <glyph glyph-name="parenleft" unicode="(" horiz-adv-x="347" 
d="M323 665q-54 -99 -81 -187t-27 -196q0 -104 28 -191.5t78 -187.5q1 -1 -2.5 -4.5t-11 -8l-16 -9.5t-18.5 -10q-49 -26 -51 -24q-79 104 -124.5 207t-45.5 228q0 126 48.5 237.5t121.5 196.5q3 4 52 -20l24.5 -13.5t18.5 -11.5t6 -6z" />
    <glyph glyph-name="parenright" unicode=")" horiz-adv-x="347" 
d="M294 285q0 -126 -48.5 -237.5t-121.5 -196.5q-3 -4 -52 20l-24.5 13.5t-18.5 11.5t-6 6q54 99 81 187t27 196q0 104 -28 191.5t-78 187.5q-1 1 2.5 4.5t11 8l16 9.5t18.5 10q49 26 51 24q79 -104 124.5 -207t45.5 -228z" />
    <glyph glyph-name="asterisk" unicode="*" horiz-adv-x="484" 
d="M453 499q2 -6 -2 -7l-111 -57l54 -115q3 -8 -3 -12l-54 -40q-5 -3 -8 1l-85 91l-84 -91q-4 -4 -9 -1q-5 4 -53 40q-5 3 -5.5 4.5t2.5 7.5l53 115l-110 57q-5 2 -3 7q11 30 20 68q2 6 11 5l117 -13l21 120q0 6 9 6h63q8 0 9 -6l21 -120l117 13q7 1 7.5 0.5t2.5 -5.5
q3 -9 10.5 -34.5t9.5 -33.5z" />
    <glyph glyph-name="plus" unicode="+" horiz-adv-x="576" 
d="M533 266q0 -11 -14 -11h-156v-171q0 -9 -2 -11.5t-10 -2.5h-122q-9 0 -10 1t-1 13v171h-157q-9 0 -11.5 1.5t-2.5 9.5v119q0 9 1.5 10.5t12.5 1.5h157v170q0 15 11 15h122h2h4.5t3 -1.5t2 -4.5t0.5 -9v-170h156q14 0 14 -12v-119z" />
    <glyph glyph-name="comma" unicode="," horiz-adv-x="285" 
d="M252 175q0 -14 -1 -17l-125 -251q-2 -6 -36 -6q-31 0 -31 9v265q0 10 7 10h183q3 0 3 -10z" />
    <glyph glyph-name="hyphen" unicode="-" horiz-adv-x="427" 
d="M382 237q0 -12 -14 -12h-305q-9 0 -11.5 2t-2.5 10v129q0 12 14 12h305q9 0 11.5 -2t2.5 -10v-129z" />
    <glyph glyph-name="period" unicode="." horiz-adv-x="303" 
d="M239 22q0 -13 -3.5 -17.5t-14.5 -4.5h-141q-18 0 -18 20v140q0 25 20 25h141q10 0 13 -3t3 -13v-147z" />
    <glyph glyph-name="slash" unicode="/" horiz-adv-x="414" 
d="M412 655q-40 -101 -157.5 -347.5t-159.5 -344.5q-2 -6 -4.5 -8.5t-3.5 -2t-5 1.5q-43 14 -82 41q-9 6 -8 8q31 79 154.5 338.5t163.5 355.5q4 11 6.5 13t9.5 -1q80 -31 86 -35t3 -11q-2 -5 -3 -8z" />
    <glyph glyph-name="zero" unicode="0" horiz-adv-x="672" 
d="M637 337q0 -166 -77 -260t-222 -94t-224 92t-79 264q0 162 78 257.5t223 95.5t223 -93.5t78 -261.5zM457 338q0 96 -32.5 145t-88.5 49q-58 0 -89.5 -50t-31.5 -144q0 -100 34.5 -148t90.5 -48q117 0 117 196z" />
    <glyph glyph-name="one" unicode="1" horiz-adv-x="328" 
d="M251 14q0 -10 -2.5 -12t-15.5 -2h-140q-17 0 -17 14v473q0 40 -13 116q-3 12 25 25q46 22 145 61q18 7 18 -14v-661z" />
    <glyph glyph-name="two" unicode="2" horiz-adv-x="584" 
d="M534 14q0 -9 -2.5 -11.5t-14.5 -2.5h-505q-8 0 -8 10q0 11 8 19l175 193l46.5 50t45.5 50.5t32 41.5t26 47.5t7 44.5q0 35 -24.5 56.5t-67.5 21.5q-42 0 -71.5 -28t-39.5 -79q-4 -19 -16 -10l-110 80q-7 6 -3 18q66 177 263 177q117 0 185.5 -51.5t68.5 -141.5
q0 -156 -265 -349q21 1 69.5 3t106.5 5t81 4q12 0 12 -11q3 -61 1 -137z" />
    <glyph glyph-name="three" unicode="3" horiz-adv-x="584" 
d="M568 196q0 -102 -75.5 -157.5t-215.5 -55.5q-120 0 -188.5 53.5t-75.5 134.5q-1 14 8 17l147 52q5 2 7 -1t2 -12q2 -51 29.5 -80.5t78.5 -29.5q46 0 75.5 24t29.5 75q0 54 -41.5 83t-109.5 30q-2 0 -2 15q0 14 3 14q52 6 87.5 35.5t35.5 76.5q0 37 -23 64.5t-66 27.5
q-80 0 -102 -102q-3 -16 -16 -12q-15 5 -59 22l-66 25q-12 3 -8 17q31 92 96.5 136t172.5 44q110 0 177.5 -48.5t67.5 -135.5q0 -47 -27 -89t-68 -58q53 -10 89.5 -49.5t36.5 -115.5z" />
    <glyph glyph-name="four" unicode="4" horiz-adv-x="613" 
d="M598 117q0 -10 -10 -10h-86v-101q0 -10 -1 -12t-8 -2h-156q-7 0 -8.5 2t-1.5 12v101h-308q-12 0 -10 14q4 51 0 108q-1 9 7 20l357 424q10 10 16 10h104q6 0 6.5 -1t0.5 -8v-437h92q6 0 6 -11v-109zM330 447l-170 -210h167z" />
    <glyph glyph-name="five" unicode="5" horiz-adv-x="579" 
d="M562 238q0 -120 -78 -187.5t-198 -67.5q-107 0 -173.5 40t-98.5 122q-5 13 9 20l124 62q15 8 20 -5q14 -36 44.5 -60t65.5 -24q50 0 77.5 26.5t27.5 72.5q0 50 -32.5 80t-93.5 30q-68 0 -190 -70q-2 -1 -10.5 8t-8.5 11q23 297 28 370q1 12 13 12h419q8 0 7 -13
q-9 -76 -17 -123q-1 -9 -10 -9h-281l-11 -92q18 13 54 24t69 11q111 0 177.5 -61.5t66.5 -176.5z" />
    <glyph glyph-name="six" unicode="6" horiz-adv-x="622" 
d="M598 233q0 -115 -71.5 -182.5t-187.5 -67.5q-147 0 -225.5 87t-78.5 254q0 176 81.5 274t231.5 98q169 0 228 -127q6 -12 -4 -16l-121 -55q-7 -3 -13 7q-16 23 -42 39t-53 16q-74 0 -106.5 -44.5t-26.5 -120.5q14 30 59.5 49.5t92.5 19.5q109 0 172.5 -56.5t63.5 -174.5z
M422 232q0 51 -28.5 80t-71.5 29q-44 0 -73 -29.5t-29 -79.5q0 -52 28.5 -80t72.5 -28t72.5 27.5t28.5 80.5z" />
    <glyph glyph-name="seven" unicode="7" horiz-adv-x="480" 
d="M489 651l-208 -634q-9 -26 -34 -26h-150q-24 0 -13 27q138 329 246 509q-15 0 -139 -4t-177 -6q-14 0 -12 15q1 17 15 131q2 15 24 15h447q1 0 1 -12v-15z" />
    <glyph glyph-name="eight" unicode="8" horiz-adv-x="612" 
d="M589 195q0 -97 -75 -154.5t-206 -57.5q-132 0 -206 58.5t-74 153.5q0 62 30 105t78 61q-80 42 -80 144q0 82 63 134.5t190 52.5q120 0 185.5 -52t65.5 -135q0 -109 -80 -143q48 -11 78.5 -57.5t30.5 -109.5zM390 493q0 34 -23.5 55.5t-57.5 21.5q-38 0 -60.5 -22.5
t-22.5 -56.5q0 -33 22.5 -53.5t60.5 -20.5q37 0 59 21.5t22 54.5zM409 213q0 38 -28.5 65.5t-71.5 27.5q-44 0 -72.5 -27.5t-28.5 -66.5t27.5 -67.5t73.5 -28.5q44 0 72 28t28 69z" />
    <glyph glyph-name="nine" unicode="9" horiz-adv-x="622" 
d="M585 351q0 -176 -81.5 -274t-231.5 -98q-169 0 -228 127q-6 12 4 16l132 61q9 4 13 -7q9 -25 35 -41t55 -16q64 0 99 46.5t29 119.5q-15 -31 -60.5 -53t-91.5 -22q-237 0 -237 240q0 105 75.5 173.5t188.5 68.5q146 0 222.5 -87t76.5 -254zM397 446q0 50 -28.5 77.5
t-72.5 27.5t-72.5 -27t-28.5 -78q0 -50 28.5 -77t71.5 -27q44 0 73 27t29 77z" />
    <glyph glyph-name="colon" unicode=":" horiz-adv-x="303" 
d="M239 342q0 -22 -19 -22h-140q-18 0 -18 20v144q0 21 14 21h147q10 0 13 -3t3 -13v-147zM239 19q0 -12 -3 -15.5t-14 -3.5h-142q-18 0 -18 15v148q0 22 14 22h147q10 0 13 -3t3 -13v-150z" />
    <glyph glyph-name="semicolon" unicode=";" horiz-adv-x="303" 
d="M239 342q0 -12 -6 -17t-21 -5h-132q-18 0 -18 20v140q0 10 5.5 17.5t14.5 7.5h141q10 0 13 -3t3 -13v-147zM255 175q0 -14 -1 -17l-125 -251q-2 -6 -36 -6q-31 0 -31 9v265q0 10 7 10h183q3 0 3 -10z" />
    <glyph glyph-name="less" unicode="&#x3c;" horiz-adv-x="460" 
d="M387 66q0 -8 -5 -8q-4 -1 -13 5q-200 139 -326 242q-2 1 -2 14t2 14q172 127 326 221q9 5 13 4q5 -2 5 -10v-121q0 -16 -9 -21q-114 -72 -140 -86q26 -16 77.5 -51.5t62.5 -42.5q9 -4 9 -17v-143z" />
    <glyph glyph-name="equal" unicode="=" horiz-adv-x="504" 
d="M460 356q0 -9 -9 -9h-395q-9 0 -9 10v113q0 9 9 9h395q9 0 9 -10v-113zM460 135q0 -9 -9 -9h-395q-9 0 -9 10v112q0 9 9 9h395q9 0 9 -10v-112z" />
    <glyph glyph-name="greater" unicode="&#x3e;" horiz-adv-x="460" 
d="M421 319q0 -13 -2 -14q-126 -103 -326 -242q-9 -6 -13 -5q-5 0 -5 8v143q0 13 9 17q11 7 62.5 42.5t77.5 51.5q-26 14 -140 86q-9 5 -9 21v121q0 8 5 10q4 1 13 -4q154 -94 326 -221q2 -1 2 -14z" />
    <glyph glyph-name="question" unicode="?" horiz-adv-x="501" 
d="M489 494q0 -94 -68 -154q-76 -67 -70 -120q0 -11 -6 -11h-146q-5 0 -6 0.5t-1 4.5v4q-5 77 52 152l14 18l14.5 19l12 16.5t11 17t6 14.5t2.5 15q0 33 -17 52t-49 19q-74 0 -89 -89q-2 -13 -13 -7l-122 63q-7 2 -2 13q29 88 86 131t155 43q103 0 169.5 -53t66.5 -148z
M357 15q0 -15 -13 -15h-147q-17 0 -17 15v137q0 20 17 20h147q13 0 13 -20v-137z" />
    <glyph glyph-name="at" unicode="@" horiz-adv-x="773" 
d="M749 372q-2 -125 -53.5 -186t-115.5 -61q-55 0 -83 17t-39 54q-45 -75 -131 -73q-66 2 -106.5 49t-40.5 130q0 101 53.5 164.5t138.5 63.5q32 0 62.5 -13t44.5 -27l86 21l-27 -221q-6 -50 3 -71t45 -21q39 0 65 45t26 120q0 124 -76 201.5t-197 77.5q-131 0 -218.5 -93.5
t-87.5 -231.5q0 -150 85.5 -233t220.5 -83q77 0 157 57q15 11 35 -20q18 -30 3 -41q-88 -64 -191 -64q-169 0 -274.5 100.5t-105.5 283.5q0 160 106 271t270 111q157 0 251.5 -92t93.5 -235zM440 421q-21 21 -49 21q-33 0 -62.5 -34t-29.5 -109q0 -90 65 -90q29 0 42.5 20
t18.5 64z" />
    <glyph glyph-name="A" unicode="A" horiz-adv-x="705" 
d="M704 14q3 -7 3.5 -9.5t-1 -3.5t-6.5 -1h-187q-9 0 -12 8q-14 31 -37 89h-242q-7 -16 -19 -46.5t-16 -39.5q-4 -11 -18 -11h-166q-11 0 -5 14q196 416 340 686q1 2 12 2t12 -2zM411 227l-71 152l-68 -152h139z" />
    <glyph glyph-name="B" unicode="B" horiz-adv-x="686" 
d="M653 184q0 -83 -51.5 -133.5t-139.5 -50.5h-378q-6 0 -7.5 2t-1.5 12v654q0 10 12 10h350q92 0 144.5 -47t52.5 -131q0 -55 -31 -94.5t-89 -55.5q62 -7 100.5 -55.5t38.5 -110.5zM452 474q0 64 -64 64h-134v-128h134q31 0 47.5 17t16.5 47zM467 213q0 32 -19.5 53
t-49.5 21h-144v-147h144q32 0 50.5 19t18.5 54z" />
    <glyph glyph-name="C" unicode="C" horiz-adv-x="720" 
d="M708 190q-36 -88 -119 -147.5t-194 -59.5q-156 0 -255.5 102.5t-99.5 250.5q0 153 101 254.5t249 101.5q116 0 195 -53.5t116 -137.5q6 -14 -3 -18l-149 -58q-6 -2 -9 5q-44 91 -146 91q-74 0 -119 -52.5t-45 -133.5q0 -88 49 -135t118 -47q100 0 140 84q5 9 12 7
l150 -41q13 -3 9 -13z" />
    <glyph glyph-name="D" unicode="D" horiz-adv-x="706" 
d="M668 339q0 -160 -89.5 -249.5t-240.5 -89.5h-255q-5 0 -6.5 1.5t-1.5 7.5v659q0 10 8 10h278q145 0 226 -87.5t81 -251.5zM481 342q0 85 -36.5 139.5t-99.5 54.5h-94v-392h92q138 0 138 198z" />
    <glyph glyph-name="E" unicode="E" horiz-adv-x="585" 
d="M554 14q0 -9 -2 -11.5t-9 -2.5h-457q-7 0 -9 2.5t-2 11.5v654v2q0 6 1 7t8 1h452q8 0 9.5 -2t1.5 -11v-122q0 -14 -11 -14l-286 3v-113h280q7 0 8.5 -2.5t1.5 -11.5v-122q0 -9 -1.5 -11.5t-8.5 -2.5h-280v-116l293 3q8 0 9.5 -1.5t1.5 -11.5v-129z" />
    <glyph glyph-name="F" unicode="F" horiz-adv-x="547" 
d="M530 532q-5 -10 -8 -10l-267 2v-136l237 3q13 0 13 -12q4 -77 0 -135q-1 -11 -14 -11l-236 2v-221q0 -14 -9 -14h-163h-1q-4 0 -5.5 2t-1.5 12v651q0 9 1.5 11t6.5 2h439q7 0 8 -7v-3q6 -81 0 -136z" />
    <glyph glyph-name="G" unicode="G" horiz-adv-x="736" 
d="M703 -13q0 -4 -9 -4q-1 0 -10 3l-111 65q-38 -34 -77 -51t-106 -17q-159 0 -254.5 97.5t-95.5 256.5q0 157 101.5 256t253.5 99q214 0 300 -184q7 -15 -2 -18l-147 -56q-9 -4 -15 8q-38 78 -134 78q-80 0 -125 -50.5t-45 -133.5q0 -85 45 -133.5t122 -48.5q61 0 97 35
t46 92q2 10 8 10h150q8 0 8 -7v-297z" />
    <glyph glyph-name="H" unicode="H" horiz-adv-x="737" 
d="M662 9q0 -7 -1 -8t-6 -1h-2h-161q-7 0 -8.5 1.5t-1.5 7.5v264h-227v-264q0 -6 -1.5 -7.5t-6.5 -1.5h-163h-2q-5 0 -6 1t-1 8v660q0 7 1 8t6 1h2h163q5 0 6.5 -1.5t1.5 -7.5v-236h227v236q0 6 1.5 7.5t8.5 1.5h161h2q5 0 6 -1t1 -8v-660z" />
    <glyph glyph-name="I" unicode="I" horiz-adv-x="335" 
d="M260 9q0 -6 -1.5 -7.5t-8.5 -1.5h-166h-2q-5 0 -6 1t-1 8v660q0 7 1 8t6 1h2h166q7 0 8.5 -1.5t1.5 -7.5v-660z" />
    <glyph glyph-name="J" unicode="J" horiz-adv-x="382" 
d="M307 190q0 -108 -39 -157.5t-132 -49.5q-70 0 -111 13q-7 1 -9 4t-2 14l7 113q1 7 4 9t16 1q50 -6 68 6.5t18 52.5v469q0 10 1.5 11.5t9.5 1.5h159q5 0 6.5 -0.5t2.5 -3t1 -9.5v-475z" />
    <glyph glyph-name="K" unicode="K" horiz-adv-x="673" 
d="M663 14q7 -14 -7 -14h-181h-3.5t-3 1.5l-2 2t-2 3.5l-2.5 5l-125 236l-82 -116v-123q0 -6 -1.5 -7.5t-7.5 -1.5h-162h-2q-5 0 -6 1t-1 8v660q0 7 1 8t6 1h2h162q6 0 7.5 -1.5t1.5 -7.5v-300q139 212 194 303q5 6 12 6h181q14 0 6 -12l-199 -275z" />
    <glyph glyph-name="L" unicode="L" horiz-adv-x="521" 
d="M515 9q0 -6 -1 -7.5t-7 -1.5h-423h-2q-5 0 -6 1t-1 8v660q0 7 1 8t6 1h2h162q6 0 7.5 -1.5t1.5 -7.5v-510l251 5q9 0 9 -10v-145z" />
    <glyph glyph-name="M" unicode="M" horiz-adv-x="814" 
d="M750 13q0 -1 0.5 -5t0 -5t-2 -2.5t-5.5 -1.5h-163q-8 0 -8 8l-6 291l-152 -156q-5 -5 -8 -5q-2 0 -7 5l-155 157l-7 -285q0 -10 -1.5 -12t-9.5 -2h-150h-5q-3 -1 -3.5 0t-0.5 6q3 288 20 673q1 9 6 11q4 0 8 -4q239 -237 305 -311q32 39 133 144l170 172q5 5 10 3
q4 -2 4 -8q16 -303 27 -673z" />
    <glyph glyph-name="N" unicode="N" horiz-adv-x="720" 
d="M645 -5q0 -12 -3 -13q-3 -2 -9 3q-67 50 -164 132.5l-160 140.5l-63 57v-306q0 -7 -1 -8t-8 -1h-151q-10 0 -10 10q-6 296 0 678q0 6 3 8q3 3 8 -1q64 -45 161 -127.5l162 -141.5l65 -60v300q0 8 1 10t7 2h152q7 0 8.5 -2t1.5 -10q6 -277 0 -671z" />
    <glyph glyph-name="O" unicode="O" horiz-adv-x="790" 
d="M750 337q0 -148 -102 -251t-253 -103t-253 103t-102 251t102.5 251.5t252.5 103.5t252.5 -103.5t102.5 -251.5zM563 337q0 80 -45.5 132t-122.5 52q-79 0 -123.5 -52t-44.5 -132t44.5 -131.5t123.5 -51.5q78 0 123 51.5t45 131.5z" />
    <glyph glyph-name="P" unicode="P" horiz-adv-x="647" 
d="M622 418q0 -218 -225 -244l-142 -4v-161q0 -6 -1.5 -7.5t-7.5 -1.5h-162h-2q-5 0 -6 1t-1 8v660q0 6 2 7.5t6 1.5h1h300q110 0 174 -71.5t64 -188.5zM437 424q0 50 -27 77.5t-73 27.5h-82v-212l84 3q50 2 74 30t24 74z" />
    <glyph glyph-name="Q" unicode="Q" horiz-adv-x="790" 
d="M750 337q0 -75 -30 -142.5t-83 -116.5v-147q0 -10 -4 -13q-5 -2 -13 1q-50 19 -163 70q-29 -6 -62 -6q-147 0 -251 103.5t-104 250.5t104 251t251 104t251 -104t104 -251zM563 337q0 80 -45.5 132t-122.5 52q-79 0 -123.5 -52t-44.5 -132t44.5 -131.5t123.5 -51.5
q78 0 123 51.5t45 131.5z" />
    <glyph glyph-name="R" unicode="R" horiz-adv-x="693" 
d="M677 27q16 -27 -2 -27h-177q-11 0 -21 20q-15 29 -42 74l-46 76l-19 30l-115 -2v-189q0 -6 -1.5 -7.5t-6.5 -1.5h-164q-8 7 -8 9v660q0 4 0.5 6t2.5 3h2h3h310q111 0 173.5 -66t62.5 -163q0 -142 -93 -186q12 -18 61 -101.5zM439 436q0 42 -21.5 67.5t-63.5 25.5h-99
v-196l100 3q40 1 62 28.5t22 71.5z" />
    <glyph glyph-name="S" unicode="S" horiz-adv-x="609" 
d="M575 205q0 -110 -79.5 -166t-204.5 -56q-202 0 -255 153q-5 15 4 19l123 50q5 2 6.5 2t2.5 -1.5t2 -5.5q10 -31 43.5 -56t77.5 -25q101 0 101 67q0 32 -27.5 51t-93.5 27q-4 0 -12 1t-12 2q-94 9 -149.5 61.5t-55.5 142.5q0 101 68.5 161t197.5 60q96 0 158.5 -40.5
t82.5 -106.5q4 -13 -7 -17l-117 -47q-9 -4 -12 4q-11 32 -43 55.5t-69 23.5q-92 0 -92 -63q0 -34 29 -51t98 -29q2 0 33 -5q202 -28 202 -211z" />
    <glyph glyph-name="T" unicode="T" horiz-adv-x="575" 
d="M559 539q0 -7 -7 -7l-171 2v-525q0 -6 -1.5 -7.5t-7.5 -1.5h-165h-2q-6 0 -7 1t-1 8v525l-176 -2q-5 0 -6 1t-1 6v129q0 6 1 8t7 2h529q8 0 8 -10v-129z" />
    <glyph glyph-name="U" unicode="U" horiz-adv-x="695" 
d="M630 246q0 -126 -69 -194.5t-213 -68.5q-140 0 -211.5 73t-71.5 200v416q0 4 0.5 5t4.5 1h168q5 0 6 -1t1 -7v-445q0 -47 31.5 -71t73.5 -24q41 0 73 24t32 71v446q0 7 6 7h164q4 0 4.5 -1t0.5 -6v-425z" />
    <glyph glyph-name="V" unicode="V" horiz-adv-x="677" 
d="M671 660l-311 -665q-7 -14 -15 -14q-7 0 -13 12q-192 377 -327 667q-6 12 -5.5 15t10.5 3h170q15 0 18 -8l153 -368q110 282 139 364q4 12 20 12h155q10 0 11 -2.5t-5 -15.5z" />
    <glyph glyph-name="W" unicode="W" horiz-adv-x="845" 
d="M842 665l-262 -671q-3 -8 -12 -8q-10 0 -12 6l-136 306l-138 -307q-2 -6 -11 -6q-10 0 -12 6q-170 436 -254 669q-6 12 -5.5 15t9.5 3h154q13 -1 17.5 -4t8.5 -14q10 -38 35 -116.5l45 -138.5l20 -60q106 276 131 330q4 9 12 9q9 0 12 -9l122 -330q77 235 102 323
q1 8 2.5 9t7.5 1h155q10 0 11 -1.5t-2 -11.5z" />
    <glyph glyph-name="X" unicode="X" horiz-adv-x="616" 
d="M614 19q13 -19 -7 -19h-180q-16 0 -26 16l-110 176q-70 -117 -108 -172q-15 -20 -29 -20h-152q-7 0 -9.5 5t1.5 11l207 318l-211 331q-10 13 5 13h175q16 0 28 -18l111 -170l119 179q7 9 22 9h149q24 0 11 -21l-210 -308z" />
    <glyph glyph-name="Y" unicode="Y" horiz-adv-x="644" 
d="M640 653q-39 -87 -93 -196l-88 -175l-34 -66v-202q0 -10 -1.5 -12t-9.5 -2h-166q-5 0 -6 2t-1 12v197q-144 259 -241 454q-4 7 -4 9.5t1.5 3t8.5 0.5h169q18 0 26 -16l132 -290q93 205 125 288q5 11 8.5 14.5t12.5 3.5h147q16 0 18.5 -4t-4.5 -21z" />
    <glyph glyph-name="Z" unicode="Z" horiz-adv-x="551" 
d="M537 660q-44 -100 -112.5 -227t-115.5 -204l-47 -77q171 0 257 3q13 0 13 -11v-133q0 -11 -10 -11h-506q-5 0 -6 7.5t2 13.5q37 80 109.5 207l126.5 214l53 86q-26 -1 -126 -0.5t-126 -0.5q-7 0 -8 1t-1 8v129q0 8 2.5 10.5t12.5 2.5h478q3 0 4 -7t0 -11z" />
    <glyph glyph-name="bracketleft" unicode="[" horiz-adv-x="351" 
d="M336 -142q0 -6 -5 -6h-260q-7 0 -7 6v814q0 6 7 6h260q5 0 5 -6v-97q0 -5 -4 -5l-109 2v-614q99 2 109 2q4 0 4 -5v-97z" />
    <glyph glyph-name="backslash" unicode="\" horiz-adv-x="414" 
d="M420 1q2 -4 -9 -9q-2 -1 -3 -2q-49 -28 -78 -38q-7 -2 -11 4q-1 2 -2 5q-59 120 -173.5 376l-143.5 317q-5 10 -5 12t5 6q12 9 86 35q3 1 5.5 1t5 -3t5.5 -10q47 -96 164.5 -358t153.5 -336z" />
    <glyph glyph-name="bracketright" unicode="]" horiz-adv-x="351" 
d="M299 -143q0 -6 -7 -6h-260q-5 0 -5 6v97q0 5 3 5l109 -2v614q-98 -2 -109 -2q-3 0 -3 6v96q0 6 5 6h260q7 0 7 -6v-814z" />
    <glyph glyph-name="asciicircum" unicode="^" horiz-adv-x="430" 
d="M419 496q-1 -5 -12 -5h-116l-78 82l-86 -82h-112q-6 0 -8 5q-1 4 7 12q11 11 90.5 100t92.5 105q9 11 16 11q6 0 13 -8l184 -204q10 -12 9 -16z" />
    <glyph glyph-name="underscore" unicode="_" horiz-adv-x="427" 
d="M445 -205q0 -14 -18 -14h-427q-16 0 -16 14v91q0 15 16 15h427q18 0 18 -15v-91z" />
    <glyph glyph-name="grave" unicode="`" horiz-adv-x="500" 
d="M350 552q1 -1 -2.5 -3t-8.5 -4t-11 -4t-11.5 -2t-9.5 1q-32 15 -59.5 29.5l-60.5 31.5l-59 30q1 2 -7 19q20 13 61.5 38l62.5 38q4 3 8 -2z" />
    <glyph glyph-name="a" unicode="a" horiz-adv-x="627" 
d="M567 14q0 -14 -8 -14h-142q-10 0 -10 9v63q-12 -37 -52 -58t-89 -21q-103 0 -169.5 70t-66.5 190q0 111 68 184.5t165 73.5q48 0 85.5 -23.5t49.5 -55.5v61q0 12 8 12h154q7 0 7 -9v-482zM398 250q0 48 -28.5 76.5t-71.5 28.5q-47 0 -74.5 -30t-27.5 -77q0 -45 29.5 -74
t72.5 -29q42 0 71 29.5t29 75.5z" />
    <glyph glyph-name="b" unicode="b" horiz-adv-x="637" 
d="M597 253q0 -116 -62 -188t-167 -72q-46 0 -85.5 17.5t-59.5 48.5l-11 -48q-3 -12 -22 -12h-122q-6 0 -7 2t-1 11v666q0 10 1 12t7 2h149q8 0 8 -13v-238q14 31 51.5 50.5t84.5 19.5q104 0 170 -69.5t66 -188.5zM431 250q0 47 -29 76t-72 29t-71.5 -28.5t-28.5 -76.5
q0 -47 28.5 -76t71.5 -29q42 0 71.5 29.5t29.5 75.5z" />
    <glyph glyph-name="c" unicode="c" horiz-adv-x="544" 
d="M533 128q-70 -145 -235 -145q-119 0 -193.5 72t-74.5 192q0 117 74 195t192 78q84 0 146.5 -38t89.5 -111q4 -11 -6 -15l-131 -55q-5 -1 -8 6q-10 21 -35 34.5t-53 13.5q-48 0 -75.5 -29.5t-27.5 -76.5t29.5 -75.5t74.5 -28.5q29 0 53 14t33 35q4 10 15 5l126 -54
q11 -6 6 -17z" />
    <glyph glyph-name="d" unicode="d" horiz-adv-x="620" 
d="M560 15q0 -16 -11 -16h-139q-11 0 -11 16v29q-37 -51 -128 -51q-112 0 -176.5 68.5t-64.5 191.5q0 118 66 188t170 70q37 0 73.5 -14t54.5 -37v219q0 13 8 13h150q6 0 7 -2t1 -12v-663zM398 250q0 48 -29 76.5t-72 28.5t-72 -28.5t-29 -75.5q0 -46 29.5 -76t74.5 -30
q42 0 70 29t28 76z" />
    <glyph glyph-name="e" unicode="e" horiz-adv-x="534" 
d="M519 290q0 -42 -6 -68q-2 -12 -20 -12h-299q1 -40 29 -64t73 -24q54 0 96 50q5 7 14 -5q41 -57 69 -100q8 -12 -5 -23q-26 -23 -75 -41t-102 -18q-116 0 -189.5 72.5t-73.5 197.5q0 116 71.5 189.5t191.5 73.5q95 0 160.5 -62.5t65.5 -165.5zM363 298q-3 40 -25 62.5
t-60 22.5t-59 -24.5t-25 -60.5h169z" />
    <glyph glyph-name="f" unicode="f" horiz-adv-x="326" 
d="M351 628q-14 -19 -37 -57q-5 -11 -11 -5q-12 23 -40 23q-16 0 -26.5 -11t-10.5 -31v-36q0 -6 5 -6h74q6 0 7.5 -1.5t1.5 -6.5v-104q0 -16 -11 -16h-67v-366q0 -8 -1.5 -9.5t-7.5 -1.5h-154q-7 0 -7 13v365h-40q-4 0 -5.5 0.5t-3 3t-1.5 7.5v104q0 12 8 12h42v53
q0 69 35 108t108 39q38 0 66.5 -9.5t42.5 -19.5t30 -28q10 -10 3 -20z" />
    <glyph glyph-name="g" unicode="g" horiz-adv-x="624" 
d="M564 164q0 -196 -64.5 -278t-212.5 -82q-42 0 -98 15t-96 35q-3 1 -6.5 3t-5 3l-3 2t-1.5 2.5v3t1 4.5q2 7 21.5 55t24.5 64q2 6 4 8t4.5 1.5t7.5 -3.5q25 -16 63.5 -30t69.5 -14q70 0 97.5 29.5t27.5 101.5q-43 -62 -139 -62q-103 0 -166 62.5t-63 180.5q0 114 64 180
t166 66q40 0 81.5 -15t56.5 -39v36q0 8 1.5 10t7.5 2h149q8 0 8 -12v-329zM398 254q0 45 -29.5 74t-71.5 29q-43 0 -72 -29.5t-29 -73.5q0 -43 29.5 -71.5t71.5 -28.5q43 0 72 27.5t29 72.5z" />
    <glyph glyph-name="h" unicode="h" horiz-adv-x="596" 
d="M536 15q0 -10 -2 -12.5t-8 -2.5h-151q-6 0 -7.5 1.5t-1.5 9.5v298q0 32 -18 49t-45 17q-52 0 -73 -48v-316q0 -11 -7 -11h-155q-6 0 -7 2t-1 12v666q0 9 1 10.5t6 1.5h154q9 0 9 -15v-251q38 94 151 94q155 0 155 -165v-340z" />
    <glyph glyph-name="i" unicode="i" horiz-adv-x="290" 
d="M230 573q0 -11 -9 -11h-153q-8 0 -8 13v104q0 13 7 13h153q6 0 8 -2t2 -11v-106zM230 11q0 -11 -9 -11h-153q-6 0 -7 2t-1 12v479q0 9 1 10.5t6 1.5h153q6 0 8 -1.5t2 -10.5v-482z" />
    <glyph glyph-name="j" unicode="j" horiz-adv-x="302" 
d="M241 573q0 -11 -8 -11h-153q-8 0 -8 13v104q0 13 7 13h154q8 0 8 -13v-106zM242 22q0 -188 -150 -188q-55 0 -106 20q-10 2 -9 15q0 5 5.5 48.5t5.5 50.5q1 16 19 12q34 -9 49.5 3t15.5 51v459q0 12 7 12h154q4 0 5.5 -0.5t2.5 -3t1 -8.5v-471z" />
    <glyph glyph-name="k" unicode="k" horiz-adv-x="576" 
d="M577 12q7 -12 -9 -12h-182q-8 0 -17 14l-85 148l-54 -68v-83q0 -11 -8 -11h-154q-6 0 -7 2t-1 12v665q0 9 1 11t6 2h154q6 0 7.5 -2t1.5 -11v-377l137 195q4 8 12 8h173q15 0 3 -18l-160 -196z" />
    <glyph glyph-name="l" unicode="l" horiz-adv-x="290" 
d="M230 11q0 -11 -8 -11h-154q-6 0 -7 2t-1 12v665q0 9 1 11t7 2h153q6 0 7.5 -2t1.5 -11v-668z" />
    <glyph glyph-name="m" unicode="m" horiz-adv-x="892" 
d="M832 15q0 -15 -9 -15h-152q-5 0 -7 1.5t-2 9.5v286q0 78 -63 78q-25 0 -44 -13.5t-24 -30.5v-316q0 -15 -9 -15h-152q-5 0 -7 1.5t-2 9.5v286q0 39 -17.5 58.5t-45.5 19.5q-25 0 -45 -14.5t-23 -29.5v-320q0 -11 -7 -11h-155q-6 0 -7 2t-1 12v479q0 9 1 10.5t6 1.5h149
q6 0 7.5 -1.5t1.5 -10.5v-69q16 44 55.5 70t92.5 26q120 0 150 -96q12 45 54 70.5t97 25.5q158 0 158 -160v-345z" />
    <glyph glyph-name="n" unicode="n" horiz-adv-x="593" 
d="M536 15q0 -10 -2 -12.5t-8 -2.5h-151q-6 0 -7.5 1.5t-1.5 9.5v298q0 32 -18 49t-45 17q-52 0 -73 -48v-316q0 -11 -7 -11h-155q-6 0 -7 2t-1 12v479q0 9 1 10.5t6 1.5h147q11 0 11 -16v-65q15 44 56.5 70t99.5 26q155 0 155 -165v-340z" />
    <glyph glyph-name="o" unicode="o" horiz-adv-x="595" 
d="M564 251q0 -119 -75 -193.5t-192 -74.5q-116 0 -191.5 74.5t-75.5 193.5q0 116 74.5 192.5t192.5 76.5q117 0 192 -75t75 -194zM398 251q0 48 -29 78t-71 30q-43 0 -72.5 -30.5t-29.5 -77.5t30 -78.5t73 -31.5q42 0 70.5 31t28.5 79z" />
    <glyph glyph-name="p" unicode="p" horiz-adv-x="634" 
d="M597 254q0 -132 -68 -200t-178 -63q-38 2 -73 18.5t-48 40.5v-203q0 -13 -8 -13h-155q-5 0 -6 2t-1 12v645q0 9 1 10.5t6 1.5h146q5 0 6.5 -1.5t1.5 -10.5v-48q11 32 52.5 50.5t85.5 18.5q101 0 169.5 -65.5t68.5 -194.5zM431 250q0 47 -29.5 76.5t-70.5 29.5
q-45 0 -73 -29.5t-28 -76.5q0 -49 31 -77.5t73 -28.5q40 0 68.5 29.5t28.5 76.5z" />
    <glyph glyph-name="q" unicode="q" horiz-adv-x="619" 
d="M560 -153q0 -9 -1 -11t-7 -2h-142q-6 0 -8 2t-2 11v207q-15 -27 -52 -45t-79 -18q-109 0 -174 69t-65 192q0 119 65 190.5t166 71.5q52 0 90.5 -19t56.5 -49l45 54q10 13 23 12q6 -1 33.5 -3t42.5 -4q7 -9 8 -13v-645zM398 252q0 47 -29 75t-73 28q-42 0 -71 -29.5
t-29 -76.5q0 -49 29.5 -76.5t72.5 -27.5t71.5 29t28.5 78z" />
    <glyph glyph-name="r" unicode="r" horiz-adv-x="478" 
d="M473 399l-52 -53.5t-52 -52.5q-6 -6 -25 -6q0 69 -55 69q-34 0 -59 -38v-307q0 -11 -8 -11h-154q-6 0 -7 2t-1 12v479q0 9 1 10.5t7 1.5h149q6 0 7 -1.5t1 -10.5v-49q15 35 49.5 55.5t70.5 20.5q57 0 92 -31t36 -90z" />
    <glyph glyph-name="s" unicode="s" horiz-adv-x="508" 
d="M479 168q0 -85 -61 -135.5t-169 -50.5q-91 0 -142 30t-77 87q-4 12 3 15l109 42q7 2 9 -4q8 -23 31 -38.5t50 -15.5q32 0 48.5 11t16.5 29q0 20 -20.5 33t-77.5 27q-80 20 -120.5 54t-40.5 104q0 78 60 121t165 43q81 0 131.5 -28.5t65.5 -79.5q2 -12 -5 -14l-111 -39
q-7 -3 -11 3q-28 45 -76 45q-56 0 -56 -35q0 -15 22.5 -24.5t86.5 -22.5q81 -17 125 -53.5t44 -103.5z" />
    <glyph glyph-name="t" unicode="t" horiz-adv-x="373" 
d="M360 30q1 -10 -9 -15q-59 -28 -102 -28q-49 0 -83 13.5t-52 32t-27.5 51t-11.5 56.5t-2 62v175h-41q-6 0 -8.5 1.5t-2.5 9.5v105q0 12 8 12h44l3 125q0 14 8 14h142q9 0 14 -5.5t5 -11.5l-2 -122h85q10 0 10 -8v-107q0 -14 -11 -14q-10 0 -41 0.5t-43 0.5v-185
q0 -33 22 -48t61 -7q16 4 19 -12q7 -37 15 -95z" />
    <glyph glyph-name="u" unicode="u" horiz-adv-x="593" 
d="M531 12q0 -9 -1 -10.5t-6 -1.5h-145q-7 0 -10 2.5t-3 12.5v50q-29 -80 -156 -80q-78 0 -117 42t-38 123l3 338q0 17 10 17h151q9 0 9 -14l-3 -299q0 -32 18 -49t45 -17q55 0 73 48v320q0 11 7 11h155q5 0 6.5 -2t1.5 -12v-479z" />
    <glyph glyph-name="v" unicode="v" horiz-adv-x="537" 
d="M535 491l-250 -499q-4 -10 -15 -10t-17 11l-250 496q-6 12 -5 14t9 2h173q9 0 11 -7l83 -228q42 110 79 225q3 10 10 10h168q7 0 7.5 -1.5t-3.5 -12.5z" />
    <glyph glyph-name="w" unicode="w" horiz-adv-x="670" 
d="M667 495l-203 -499q-5 -11 -12 -11q-8 0 -14 11q-16 32 -41.5 88.5t-42.5 97.5l-17 40q-70 -163 -104 -226q-5 -10 -15 -10q-8 0 -12 10l-204 496q-5 10 -4.5 11.5t9.5 1.5h155q7 0 9 -4l74 -199l81 195q3 8 13 8t13 -8l82 -195q53 154 71 197q3 6 10 6h144q10 0 10 -2
q1 -2 -2 -8z" />
    <glyph glyph-name="x" unicode="x" horiz-adv-x="484" 
d="M490 9q4 -6 3.5 -8t-8.5 -2h-160q-8 0 -17 14l-68 117q-57 -95 -71 -124q-3 -7 -6 -7h-152q-11 0 -5 10l147 250l-150 237q-4 7 -3.5 8t6.5 1h164q7 0 10 -5l68 -106q43 78 57 106q2 5 9 5h153q6 0 6.5 -1.5t-2.5 -6.5l-1 -1l-139 -235z" />
    <glyph glyph-name="y" unicode="y" horiz-adv-x="520" 
d="M520 491q-126 -350 -248 -650q-3 -7 -11 -7h-145q-9 0 -10.5 2t1.5 10l82 205l-189 440q-3 11 -0.5 12.5t10.5 1.5h157q9 0 12 -9q1 -1 1 -2l95 -244l72 244q3 11 16 11h150q12 0 7 -14z" />
    <glyph glyph-name="z" unicode="z" horiz-adv-x="456" 
d="M451 488l-212 -357q127 3 188 3q9 0 11.5 -2t2.5 -9v-114q0 -6 -2.5 -7.5t-11.5 -1.5h-418q-17 0 -8 16l204 366q-113 -3 -162 -4q-13 0 -13 9v108q0 10 9 10h406q16 0 6 -17z" />
    <glyph glyph-name="braceleft" unicode="{" horiz-adv-x="371" 
d="M359 -136q0 -7 -2.5 -9t-11.5 -2h-93q-162 0 -162 151v118q0 35 -13.5 47.5t-49.5 15.5q-13 2 -13 11v134q0 10 12 11q35 5 49.5 23t14.5 56v107q0 65 47.5 108t114.5 43h93q14 0 14 -11v-86q0 -12 -14 -12h-17q-41 0 -61.5 -28.5t-20.5 -62.5v-107q0 -53 -16.5 -79
t-69.5 -29q52 -3 69 -31t17 -81v-98q0 -50 19 -71t63 -21h17q9 0 11.5 -2t2.5 -10v-85z" />
    <glyph glyph-name="bar" unicode="|" horiz-adv-x="414" 
d="M278 -182q0 -12 -11 -12h-119q-10 0 -10 13v889q0 9 0.5 12.5t4 5t11.5 1.5h109q11 0 13 -2t2 -18v-889z" />
    <glyph glyph-name="braceright" unicode="}" horiz-adv-x="371" 
d="M357 198q0 -12 -15 -13q-34 -3 -47.5 -15.5t-13.5 -47.5v-118q0 -151 -162 -151h-93q-9 0 -11.5 2t-2.5 9v85q0 8 2 10t12 2h16q45 0 64 21t19 71v98q0 53 16.5 81t68.5 31q-53 3 -69 29t-16 79v107q0 34 -20.5 62.5t-62.5 28.5h-16q-14 0 -14 12v86q0 11 14 11h93
q67 0 114.5 -43t47.5 -108v-107q0 -38 14.5 -56.5t48.5 -22.5q13 -2 13 -13v-130z" />
    <glyph glyph-name="asciitilde" unicode="~" horiz-adv-x="507" 
d="M465 646q-1 -9 -9.5 -28.5t-24 -46.5t-43 -46.5t-59.5 -19.5q-42 -1 -89 38q-40 32 -69 32q-27 0 -57 -16q-23 -14 -31 -17q-10 -5 -11 0q-1 2 -1 8q1 32 42.5 87t94.5 56q42 0 81 -31q4 -3 13 -10.5l13.5 -11t12 -8t14.5 -6t14 -1.5q28 0 62 16q11 5 24 13t14 8
q8 3 10 -1t-1 -15z" />
    <glyph glyph-name="nbspace" unicode="&#xa0;" horiz-adv-x="107" 
 />
    <glyph glyph-name="exclamdown" unicode="&#xa1;" horiz-adv-x="336" 
d="M256 514q0 -12 -10 -12h-151q-10 0 -10 12v153q0 11 10 11h151q10 0 10 -11v-153zM260 5q0 -10 -8 -10q-77 -2 -157 0q-7 0 -7 12q-6 126 -3 296q0 4 49 147q3 10 12 10h50q13 0 16 -10q48 -140 48 -147q5 -155 0 -298z" />
    <glyph glyph-name="cent" unicode="&#xa2;" horiz-adv-x="531" 
d="M473 331q-49 -135 -198 -135q-38 0 -71 12l-32 -59l-63 38l32 56q-92 66 -92 184q0 99 67.5 167t160.5 68q42 0 84 -17l31 56l62 -37l-31 -58q33 -33 47 -80q3 -10 -5 -13l-103 -47q-6 -3 -10 4q-21 41 -73 41q-36 0 -58 -25.5t-22 -60.5q0 -29 24 -53.5t59 -24.5
q23 0 41.5 11.5t27.5 28.5q3 7 12 4l104 -46q10 -3 6 -14z" />
    <glyph glyph-name="sterling" unicode="&#xa3;" horiz-adv-x="599" 
d="M581 515q4 -12 -3 -18q-23 -16 -124 -78q-4 -2 -7 0t-3 8q-6 125 -112 125q-46 0 -69.5 -28t-23.5 -72q0 -10 3.5 -33t3.5 -28q29 0 71 -1.5t44 -1.5q3 -98 -1 -98h-91q15 -21 23 -64.5t5 -71.5q37 0 131 -10t132 -19q5 -2 -17 -66q-18 -59 -23 -59q-313 -4 -471 0
q-12 0 -14.5 2.5t-2.5 11.5v116q0 5 2 7t10 4q19 5 123 13q9 25 -6 69.5t-40 66.5h-88q-6 0 -7.5 1.5t-1.5 6.5v93q0 6 7 6h46q-23 38 -23 102q0 91 70 145.5t185 54.5q102 0 173 -48t99 -136z" />
    <glyph glyph-name="currency" unicode="&#xa4;" 
d="M793 300q0 -154 -109.5 -263.5t-263.5 -109.5t-263.5 109.5t-109.5 263.5t109.5 263.5t263.5 109.5t263.5 -109.5t109.5 -263.5zM693 491l-48 -29l-9 78l-65 -109l-127 53l23 54l40 40l-103 33l-106 -73l82 -13l2 -49l-107 -51l-100 97l9 -104l-48 33l73 -189l193 38
l-127 -224l21 -51l48 24l67 220l-26 -218l46 -36l36 41l-25 215l63 -209l57 -9l16 43l-129 206l193 -22zM478 573l-32 -35l-35 -68l-13 48l12 17l-68 11l26 13l17 -5l-1 19l28 19zM658 436l-30 -128l-35 38l-38 -26l-28 30l-31 -20l-45 40l-35 -47l-52 44l-22 -53l-37 28
l-12 -35l-38 29l-34 -39l-38 91l33 -14l11 58l38 -48l128 53l21 -52l16 62l148 -56l47 59l8 -40zM559 94l-32 -18l-30 100zM448 53l-40 1l18 142zM353 160l-28 -107l-29 17z" />
    <glyph glyph-name="yen" unicode="&#xa5;" horiz-adv-x="644" 
d="M640 653l-114 -238h81q17 0 17 -15v-65q0 -15 -17 -15h-129q-24 -49 -33 -66h162q17 0 17 -15v-65q0 -15 -17 -15h-182v-145q0 -10 -1.5 -12t-9.5 -2h-166q-5 0 -6 2t-1 12v145h-203q-17 0 -17 15v65q0 15 17 15h179l-36 66h-143q-17 0 -17 15v65q0 15 17 15h91l-129 250
q-4 7 -4 9.5t1.5 3t8.5 0.5h169q18 0 26 -16l132 -288l125 286q5 12 8.5 15t12.5 3h147q16 0 18.5 -4t-4.5 -21z" />
    <glyph glyph-name="brokenbar" unicode="&#xa6;" 
d="M793 300q0 -154 -109.5 -263.5t-263.5 -109.5t-263.5 109.5t-109.5 263.5t109.5 263.5t263.5 109.5t263.5 -109.5t109.5 -263.5zM693 491l-48 -29l-9 78l-65 -109l-127 53l23 54l40 40l-103 33l-106 -73l82 -13l2 -49l-107 -51l-100 97l9 -104l-48 33l73 -189l193 38
l-127 -224l21 -51l48 24l67 220l-26 -218l46 -36l36 41l-25 215l63 -209l57 -9l16 43l-129 206l193 -22zM478 573l-32 -35l-35 -68l-13 48l12 17l-68 11l26 13l17 -5l-1 19l28 19zM658 436l-30 -128l-35 38l-38 -26l-28 30l-31 -20l-45 40l-35 -47l-52 44l-22 -53l-37 28
l-12 -35l-38 29l-34 -39l-38 91l33 -14l11 58l38 -48l128 53l21 -52l16 62l148 -56l47 59l8 -40zM559 94l-32 -18l-30 100zM448 53l-40 1l18 142zM353 160l-28 -107l-29 17z" />
    <glyph glyph-name="section" unicode="&#xa7;" horiz-adv-x="508" 
d="M485 333q0 -69 -72 -138q69 -40 69 -125q0 -80 -71.5 -130.5t-171.5 -50.5q-153 0 -213 116q-6 11 3 14l118 44q7 2 9 -4q21 -54 76 -54q25 0 41 10.5t16 27.5q0 37 -71 46q-2 0 -5.5 0.5t-8.5 1.5t-7 1q-74 8 -122 49t-49 108q0 41 18.5 79t51.5 61q-2 1 -6 2.5
t-14.5 9.5t-18 18t-14 29t-6.5 42q0 88 63 141.5t167 53.5q80 0 132 -30t67 -80q1 -4 1.5 -5.5t0 -3.5t-1.5 -2.5t-4 -1.5l-118 -42q-8 -3 -12 4q-24 47 -72 47q-54 0 -54 -34q0 -17 17.5 -27.5t66.5 -17.5q18 -2 29 -4q166 -23 166 -155zM327 222q23 31 8.5 69t-60.5 49
q-80 19 -105 24q-7 -26 -7 -50t20.5 -44.5t58.5 -29.5q70 -17 85 -18z" />
    <glyph glyph-name="dieresis" unicode="&#xa8;" horiz-adv-x="500" 
d="M453 583q0 -8 -7 -8h-158q-7 0 -7 11v97q0 9 7 9h157q3 0 4.5 -0.5t2.5 -2.5t1 -6v-100zM211 583q0 -8 -8 -8h-156q-6 0 -6 11v97q0 9 5 9h157q8 -3 8 -9v-100z" />
    <glyph glyph-name="copyright" unicode="&#xa9;" horiz-adv-x="803" 
d="M774 306q0 -162 -109 -276.5t-263 -114.5q-155 0 -264 114.5t-109 276.5q0 163 109.5 278t263.5 115t263 -115t109 -278zM711 306q0 137 -91 235.5t-218 98.5q-128 0 -219 -98.5t-91 -235.5t91 -235t219 -98q127 0 218 98t91 235zM617 222q-23 -64 -79 -106t-130 -42
q-103 0 -171 63.5t-68 170.5q0 99 67 166.5t170 67.5q72 0 128 -38.5t79 -98.5q3 -8 -3 -12l-115 -43q-5 -1 -6 4q-26 50 -86 50q-40 0 -68 -29t-28 -68q0 -40 27 -68.5t73 -28.5q57 0 80 53q3 5 9 4l115 -36q9 -1 6 -9z" />
    <glyph glyph-name="ordfeminine" unicode="&#xaa;" horiz-adv-x="560" 
d="M495 309q0 -7 -1 -8.5t-6 -1.5h-99q-8 0 -14 6l-27 25q-42 -42 -116 -42q-84 0 -138.5 54t-54.5 147q0 89 54 144.5t135 55.5q77 0 113 -43v23q0 9 7 9h141q4 0 5 -1.5t1 -7.5v-360zM499 166q0 -8 -3 -11.5t-15 -3.5h-401q-17 0 -17 15v78q0 7 3 10.5t14 3.5h401
q18 0 18 -14v-78zM328 486q0 27 -16.5 43.5t-45.5 16.5t-46 -16t-17 -44t17 -44t46 -16t45.5 16t16.5 44z" />
    <glyph glyph-name="guillemotleft" unicode="&#xab;" horiz-adv-x="587" 
d="M536 8q0 -10 -7 -10q-5 0 -9 5l-228 237q-2 2 -2 14t2 14l228 238q4 5 9 5q7 0 7 -10v-166q0 -15 -8 -23l-71 -57l71 -59q8 -6 8 -21v-167zM272 8q0 -10 -7 -10q-5 0 -9 5l-228 237q-2 2 -2 14t2 14l228 238q4 5 9 5q7 0 7 -10v-166q0 -15 -8 -23l-71 -57l71 -59
q8 -6 8 -21v-167z" />
    <glyph glyph-name="logicalnot" unicode="&#xac;" 
d="M793 300q0 -154 -109.5 -263.5t-263.5 -109.5t-263.5 109.5t-109.5 263.5t109.5 263.5t263.5 109.5t263.5 -109.5t109.5 -263.5zM693 491l-48 -29l-9 78l-65 -109l-127 53l23 54l40 40l-103 33l-106 -73l82 -13l2 -49l-107 -51l-100 97l9 -104l-48 33l73 -189l193 38
l-127 -224l21 -51l48 24l67 220l-26 -218l46 -36l36 41l-25 215l63 -209l57 -9l16 43l-129 206l193 -22zM478 573l-32 -35l-35 -68l-13 48l12 17l-68 11l26 13l17 -5l-1 19l28 19zM658 436l-30 -128l-35 38l-38 -26l-28 30l-31 -20l-45 40l-35 -47l-52 44l-22 -53l-37 28
l-12 -35l-38 29l-34 -39l-38 91l33 -14l11 58l38 -48l128 53l21 -52l16 62l148 -56l47 59l8 -40zM559 94l-32 -18l-30 100zM448 53l-40 1l18 142zM353 160l-28 -107l-29 17z" />
    <glyph glyph-name="registered" unicode="&#xae;" horiz-adv-x="803" 
d="M774 306q0 -162 -109 -276.5t-263 -114.5q-155 0 -264 114.5t-109 276.5q0 163 109.5 278t263.5 115t263 -115t109 -278zM711 306q0 137 -91 235.5t-218 98.5q-128 0 -219 -98.5t-91 -235.5t91 -235t219 -98q127 0 218 98t91 235zM608 129q15 -24 -15 -24h-118
q-6 0 -13 13l-60 105l-49 -3v-108q0 -5 -1 -6t-5 -1h-120q-4 0 -4.5 1t-0.5 6v399q0 6 5 6h207q71 0 108 -39.5t37 -99.5q0 -85 -57 -110q9 -13 39 -63t47 -76zM443 368q0 54 -58 54h-32v-106h32q26 0 42 13.5t16 38.5z" />
    <glyph glyph-name="macron" unicode="&#xaf;" horiz-adv-x="500" 
d="M414 569q0 -12 -14 -12h-297q-9 0 -11.5 2t-2.5 10v69q0 12 14 12h297q9 0 11.5 -2t2.5 -10v-69z" />
    <glyph glyph-name="degree" unicode="&#xb0;" horiz-adv-x="385" 
d="M360 535q0 -72 -45.5 -118t-119.5 -46q-75 0 -122.5 45.5t-47.5 118.5q0 74 47.5 119.5t122.5 45.5q74 0 119.5 -45.5t45.5 -119.5zM257 535q0 33 -17.5 51.5t-48.5 18.5q-30 0 -48.5 -19t-18.5 -51q0 -35 18 -52.5t49 -17.5t48.5 18.5t17.5 51.5z" />
    <glyph glyph-name="plusminus" unicode="&#xb1;" horiz-adv-x="942" 
d="M882 11q0 -11 -8 -11h-154q-6 0 -7 2t-1 12v665q0 9 1 11t7 2h153q6 0 7.5 -2t1.5 -11v-668zM677 628q-14 -19 -37 -57q-5 -11 -11 -5q-12 23 -40 23q-16 0 -26.5 -11t-10.5 -31v-36q0 -6 5 -6h74q6 0 7.5 -1.5t1.5 -6.5v-104q0 -16 -11 -16h-67v-366q0 -8 -1.5 -9.5
t-7.5 -1.5h-154q-7 0 -7 13v365h-40q-4 0 -5.5 0.5t-3 3t-1.5 7.5v104q0 12 8 12h42v53q0 69 35 108t108 39q38 0 66.5 -9.5t42.5 -19.5t30 -28q10 -10 3 -20zM351 628q-14 -19 -37 -57q-5 -11 -11 -5q-12 23 -40 23q-16 0 -26.5 -11t-10.5 -31v-36q0 -6 5 -6h74
q6 0 7.5 -1.5t1.5 -6.5v-104q0 -16 -11 -16h-67v-366q0 -8 -1.5 -9.5t-7.5 -1.5h-154q-7 0 -7 13v365h-40q-4 0 -5.5 0.5t-3 3t-1.5 7.5v104q0 12 8 12h42v53q0 69 35 108t108 39q38 0 66.5 -9.5t42.5 -19.5t30 -28q10 -10 3 -20z" />
    <glyph glyph-name="twosuperior" unicode="&#xb2;" 
d="M793 300q0 -154 -109.5 -263.5t-263.5 -109.5t-263.5 109.5t-109.5 263.5t109.5 263.5t263.5 109.5t263.5 -109.5t109.5 -263.5zM693 491l-48 -29l-9 78l-65 -109l-127 53l23 54l40 40l-103 33l-106 -73l82 -13l2 -49l-107 -51l-100 97l9 -104l-48 33l73 -189l193 38
l-127 -224l21 -51l48 24l67 220l-26 -218l46 -36l36 41l-25 215l63 -209l57 -9l16 43l-129 206l193 -22zM478 573l-32 -35l-35 -68l-13 48l12 17l-68 11l26 13l17 -5l-1 19l28 19zM658 436l-30 -128l-35 38l-38 -26l-28 30l-31 -20l-45 40l-35 -47l-52 44l-22 -53l-37 28
l-12 -35l-38 29l-34 -39l-38 91l33 -14l11 58l38 -48l128 53l21 -52l16 62l148 -56l47 59l8 -40zM559 94l-32 -18l-30 100zM448 53l-40 1l18 142zM353 160l-28 -107l-29 17z" />
    <glyph glyph-name="threesuperior" unicode="&#xb3;" 
d="M793 300q0 -154 -109.5 -263.5t-263.5 -109.5t-263.5 109.5t-109.5 263.5t109.5 263.5t263.5 109.5t263.5 -109.5t109.5 -263.5zM693 491l-48 -29l-9 78l-65 -109l-127 53l23 54l40 40l-103 33l-106 -73l82 -13l2 -49l-107 -51l-100 97l9 -104l-48 33l73 -189l193 38
l-127 -224l21 -51l48 24l67 220l-26 -218l46 -36l36 41l-25 215l63 -209l57 -9l16 43l-129 206l193 -22zM478 573l-32 -35l-35 -68l-13 48l12 17l-68 11l26 13l17 -5l-1 19l28 19zM658 436l-30 -128l-35 38l-38 -26l-28 30l-31 -20l-45 40l-35 -47l-52 44l-22 -53l-37 28
l-12 -35l-38 29l-34 -39l-38 91l33 -14l11 58l38 -48l128 53l21 -52l16 62l148 -56l47 59l8 -40zM559 94l-32 -18l-30 100zM448 53l-40 1l18 142zM353 160l-28 -107l-29 17z" />
    <glyph glyph-name="acute" unicode="&#xb4;" horiz-adv-x="500" 
d="M377 650q2 -2 0.5 -6t-3.5 -8l-3 -5l-81 -41.5l-99 -49.5q-4 -1 -9 -1t-11 2l-11.5 4t-8.5 4t-3 3l98 172q3 6 7 2l62.5 -38t61.5 -38z" />
    <glyph glyph-name="mu" unicode="&#xb5;" 
d="M793 300q0 -154 -109.5 -263.5t-263.5 -109.5t-263.5 109.5t-109.5 263.5t109.5 263.5t263.5 109.5t263.5 -109.5t109.5 -263.5zM693 491l-48 -29l-9 78l-65 -109l-127 53l23 54l40 40l-103 33l-106 -73l82 -13l2 -49l-107 -51l-100 97l9 -104l-48 33l73 -189l193 38
l-127 -224l21 -51l48 24l67 220l-26 -218l46 -36l36 41l-25 215l63 -209l57 -9l16 43l-129 206l193 -22zM478 573l-32 -35l-35 -68l-13 48l12 17l-68 11l26 13l17 -5l-1 19l28 19zM658 436l-30 -128l-35 38l-38 -26l-28 30l-31 -20l-45 40l-35 -47l-52 44l-22 -53l-37 28
l-12 -35l-38 29l-34 -39l-38 91l33 -14l11 58l38 -48l128 53l21 -52l16 62l148 -56l47 59l8 -40zM559 94l-32 -18l-30 100zM448 53l-40 1l18 142zM353 160l-28 -107l-29 17z" />
    <glyph glyph-name="paragraph" unicode="&#xb6;" horiz-adv-x="680" 
d="M609 -62q0 -7 -1 -8t-7 -1h-2h-74q-1 48 -3.5 207t-4.5 298.5t-3 156.5h-44q-2 -20 -10.5 -319.5t-10.5 -342.5h-71q-6 0 -8 1.5t-1 7.5l6 223q-69 1 -100 4q-113 12 -170 72.5t-57 180.5q0 117 64.5 188.5t176.5 71.5h307q9 0 9 -9v-331q0 -49 2 -192t2 -208zM389 591
h-52q-45 0 -74 -49.5t-29 -122.5q0 -77 25 -117t71 -40h48z" />
    <glyph glyph-name="periodcentered" unicode="&#xb7;" horiz-adv-x="334" 
d="M272 274q0 -17 -17 -17h-171q-16 0 -16 17v160q0 17 16 17h171q17 0 17 -17v-160z" />
    <glyph glyph-name="cedilla" unicode="&#xb8;" horiz-adv-x="500" 
d="M342 -117q0 -108 -123 -108q-43 0 -74.5 20.5t-43.5 59.5q-1 9 4 10l62 20q7 2 11 -4q18 -26 45 -26q24 0 36 12t12 42q0 27 -24 52.5t-50 38.5h66q30 -14 54.5 -47t24.5 -70z" />
    <glyph glyph-name="onesuperior" unicode="&#xb9;" 
d="M793 300q0 -154 -109.5 -263.5t-263.5 -109.5t-263.5 109.5t-109.5 263.5t109.5 263.5t263.5 109.5t263.5 -109.5t109.5 -263.5zM693 491l-48 -29l-9 78l-65 -109l-127 53l23 54l40 40l-103 33l-106 -73l82 -13l2 -49l-107 -51l-100 97l9 -104l-48 33l73 -189l193 38
l-127 -224l21 -51l48 24l67 220l-26 -218l46 -36l36 41l-25 215l63 -209l57 -9l16 43l-129 206l193 -22zM478 573l-32 -35l-35 -68l-13 48l12 17l-68 11l26 13l17 -5l-1 19l28 19zM658 436l-30 -128l-35 38l-38 -26l-28 30l-31 -20l-45 40l-35 -47l-52 44l-22 -53l-37 28
l-12 -35l-38 29l-34 -39l-38 91l33 -14l11 58l38 -48l128 53l21 -52l16 62l148 -56l47 59l8 -40zM559 94l-32 -18l-30 100zM448 53l-40 1l18 142zM353 160l-28 -107l-29 17z" />
    <glyph glyph-name="ordmasculine" unicode="&#xba;" horiz-adv-x="560" 
d="M504 487q0 -91 -61 -148.5t-159 -57.5q-101 0 -164.5 57.5t-63.5 148.5t63 148t164 57q99 0 160 -57t61 -148zM499 162q0 -8 -3 -11.5t-15 -3.5h-401q-17 0 -17 15v78q0 14 17 14h401q18 0 18 -14v-78zM346 487q0 30 -18.5 49t-49.5 19t-50 -19t-19 -49q0 -69 69 -69
q32 0 50 18t18 51z" />
    <glyph glyph-name="guillemotright" unicode="&#xbb;" horiz-adv-x="587" 
d="M561 254q0 -12 -2 -14l-228 -238q-4 -5 -9 -5q-7 0 -7 10v166q0 15 8 23l71 57l-71 59q-8 6 -8 21v167q0 10 7 10q5 0 9 -5l228 -237q2 -2 2 -14zM296 254q0 -12 -2 -14l-228 -238q-4 -5 -9 -5q-7 0 -7 10v166q0 15 8 23l71 57l-71 59q-8 6 -8 21v167q0 10 7 10q5 0 9 -5
l228 -237q2 -2 2 -14z" />
    <glyph glyph-name="onequarter" unicode="&#xbc;" 
d="M793 300q0 -154 -109.5 -263.5t-263.5 -109.5t-263.5 109.5t-109.5 263.5t109.5 263.5t263.5 109.5t263.5 -109.5t109.5 -263.5zM693 491l-48 -29l-9 78l-65 -109l-127 53l23 54l40 40l-103 33l-106 -73l82 -13l2 -49l-107 -51l-100 97l9 -104l-48 33l73 -189l193 38
l-127 -224l21 -51l48 24l67 220l-26 -218l46 -36l36 41l-25 215l63 -209l57 -9l16 43l-129 206l193 -22zM478 573l-32 -35l-35 -68l-13 48l12 17l-68 11l26 13l17 -5l-1 19l28 19zM658 436l-30 -128l-35 38l-38 -26l-28 30l-31 -20l-45 40l-35 -47l-52 44l-22 -53l-37 28
l-12 -35l-38 29l-34 -39l-38 91l33 -14l11 58l38 -48l128 53l21 -52l16 62l148 -56l47 59l8 -40zM559 94l-32 -18l-30 100zM448 53l-40 1l18 142zM353 160l-28 -107l-29 17z" />
    <glyph glyph-name="onehalf" unicode="&#xbd;" 
d="M793 300q0 -154 -109.5 -263.5t-263.5 -109.5t-263.5 109.5t-109.5 263.5t109.5 263.5t263.5 109.5t263.5 -109.5t109.5 -263.5zM693 491l-48 -29l-9 78l-65 -109l-127 53l23 54l40 40l-103 33l-106 -73l82 -13l2 -49l-107 -51l-100 97l9 -104l-48 33l73 -189l193 38
l-127 -224l21 -51l48 24l67 220l-26 -218l46 -36l36 41l-25 215l63 -209l57 -9l16 43l-129 206l193 -22zM478 573l-32 -35l-35 -68l-13 48l12 17l-68 11l26 13l17 -5l-1 19l28 19zM658 436l-30 -128l-35 38l-38 -26l-28 30l-31 -20l-45 40l-35 -47l-52 44l-22 -53l-37 28
l-12 -35l-38 29l-34 -39l-38 91l33 -14l11 58l38 -48l128 53l21 -52l16 62l148 -56l47 59l8 -40zM559 94l-32 -18l-30 100zM448 53l-40 1l18 142zM353 160l-28 -107l-29 17z" />
    <glyph glyph-name="threequarters" unicode="&#xbe;" 
d="M793 300q0 -154 -109.5 -263.5t-263.5 -109.5t-263.5 109.5t-109.5 263.5t109.5 263.5t263.5 109.5t263.5 -109.5t109.5 -263.5zM693 491l-48 -29l-9 78l-65 -109l-127 53l23 54l40 40l-103 33l-106 -73l82 -13l2 -49l-107 -51l-100 97l9 -104l-48 33l73 -189l193 38
l-127 -224l21 -51l48 24l67 220l-26 -218l46 -36l36 41l-25 215l63 -209l57 -9l16 43l-129 206l193 -22zM478 573l-32 -35l-35 -68l-13 48l12 17l-68 11l26 13l17 -5l-1 19l28 19zM658 436l-30 -128l-35 38l-38 -26l-28 30l-31 -20l-45 40l-35 -47l-52 44l-22 -53l-37 28
l-12 -35l-38 29l-34 -39l-38 91l33 -14l11 58l38 -48l128 53l21 -52l16 62l148 -56l47 59l8 -40zM559 94l-32 -18l-30 100zM448 53l-40 1l18 142zM353 160l-28 -107l-29 17z" />
    <glyph glyph-name="questiondown" unicode="&#xbf;" horiz-adv-x="501" 
d="M325 526q0 -20 -17 -20h-147q-13 0 -13 20v137q0 15 13 15h147q17 0 17 -15v-137zM493 157q-29 -88 -86 -131t-155 -43q-103 0 -169.5 53t-66.5 148q0 94 68 154q76 67 70 120q0 11 6 11h146q5 0 6 -0.5t1 -4.5v-4q5 -77 -52 -152l-14 -18l-14.5 -19l-12 -16.5t-11 -17
t-6 -14.5t-2.5 -15q0 -33 17 -52t49 -19q74 0 89 89q2 13 13 7l122 -63q7 -2 2 -13z" />
    <glyph glyph-name="Agrave" unicode="&#xc0;" horiz-adv-x="705" 
d="M704 14q3 -7 3.5 -9.5t-1 -3.5t-6.5 -1h-187q-9 0 -12 8q-14 31 -37 89h-242q-7 -16 -19 -46.5t-16 -39.5q-4 -11 -18 -11h-166q-11 0 -5 14q196 416 340 686q1 2 12 2t12 -2zM411 227l-71 152l-68 -152h139zM398 733q1 -1 -2.5 -3t-8.5 -4t-11 -4t-11.5 -2t-9.5 1
q-32 15 -59.5 29.5l-60.5 31.5l-59 30q1 2 -7 19q20 13 61.5 38l62.5 38q4 3 8 -2z" />
    <glyph glyph-name="Aacute" unicode="&#xc1;" horiz-adv-x="705" 
d="M704 14q3 -7 3.5 -9.5t-1 -3.5t-6.5 -1h-187q-9 0 -12 8q-14 31 -37 89h-242q-7 -16 -19 -46.5t-16 -39.5q-4 -11 -18 -11h-166q-11 0 -5 14q196 416 340 686q1 2 12 2t12 -2zM411 227l-71 152l-68 -152h139zM487 819q2 -2 0.5 -6l-3.5 -9l-3 -4l-81 -41.5l-99 -49.5
q-4 -1 -9 -1t-11 2l-11.5 4t-8.5 4t-3 3l98 172q3 6 7 2l62.5 -38t61.5 -38z" />
    <glyph glyph-name="Acircumflex" unicode="&#xc2;" horiz-adv-x="705" 
d="M704 14q3 -7 3.5 -9.5t-1 -3.5t-6.5 -1h-187q-9 0 -12 8q-14 31 -37 89h-242q-7 -16 -19 -46.5t-16 -39.5q-4 -11 -18 -11h-166q-11 0 -5 14q196 416 340 686q1 2 12 2t12 -2zM411 227l-71 152l-68 -152h139zM519 718q0 -4 -10 -4h-98q-9 0 -15 5q-8 5 -20.5 16.5
l-21.5 20.5l-8 9q-30 -35 -49 -46q-5 -5 -13 -5h-103q-7 0 -7 4q0 2 7 7l79 76.5t78 74.5q8 6 9 6q3 0 10 -7q7 -6 76.5 -72.5t77.5 -75.5q8 -8 8 -9z" />
    <glyph glyph-name="Atilde" unicode="&#xc3;" horiz-adv-x="705" 
d="M704 14q3 -7 3.5 -9.5t-1 -3.5t-6.5 -1h-187q-9 0 -12 8q-14 31 -37 89h-242q-7 -16 -19 -46.5t-16 -39.5q-4 -11 -18 -11h-166q-11 0 -5 14q196 416 340 686q1 2 12 2t12 -2zM411 227l-71 152l-68 -152h139zM531 824q-1 -6 -9 -22t-22 -37.5t-38.5 -37.5t-51.5 -16
q-35 0 -69 22q-41 24 -63 24q-26 0 -51 -21l-22 -22q-5 -3 -11.5 0t-6.5 10q1 60 36 95t86 35q36 0 68 -21q4 -2 14.5 -9.5l15 -10.5t13 -6t16.5 -3q27 0 47 10q7 4 18.5 12.5t12.5 9.5q5 4 11.5 -0.5t5.5 -11.5z" />
    <glyph glyph-name="Adieresis" unicode="&#xc4;" horiz-adv-x="705" 
d="M704 14q3 -7 3.5 -9.5t-1 -3.5t-6.5 -1h-187q-9 0 -12 8q-14 31 -37 89h-242q-7 -16 -19 -46.5t-16 -39.5q-4 -11 -18 -11h-166q-11 0 -5 14q196 416 340 686q1 2 12 2t12 -2zM411 227l-71 152l-68 -152h139zM553 713q0 -8 -7 -8h-158q-7 0 -7 11v97q0 9 7 9h157
q3 0 4.5 -0.5t2.5 -2.5t1 -6v-100zM311 713q0 -8 -8 -8h-156q-6 0 -6 11v97q0 9 5 9h157q8 -3 8 -9v-100z" />
    <glyph glyph-name="Aring" unicode="&#xc5;" horiz-adv-x="705" 
d="M704 14q3 -7 3.5 -9.5t-1 -3.5t-6.5 -1h-187q-12 0 -12 8q-14 31 -37 89h-242q-7 -16 -19 -46.5t-16 -39.5q0 -11 -18 -11h-166q-11 0 -5 14q157 333 287 584q-66 36 -66 108q0 51 36.5 87.5t87.5 36.5t87.5 -36.5t36.5 -87.5q0 -66 -56 -102zM399 706q0 23 -16.5 39.5
t-39.5 16.5t-39.5 -16.5t-16.5 -39.5t16.5 -39.5t39.5 -16.5t39.5 16.5t16.5 39.5zM411 227l-71 152l-68 -152h139z" />
    <glyph glyph-name="AE" unicode="&#xc6;" horiz-adv-x="929" 
d="M907 14v-7t-1 -4t-3 -2.5t-6 -0.5h-451q-9 0 -11 2.5t-2 11.5v76h-206l-16.5 -37t-19.5 -42q-3 -7 -6 -9t-12 -2h-183q-11 0 -4 14q187 349 341 669q4 9 48 5q46 -5 166 -6l347 -4q5 0 7 -0.5t3.5 -3.5t1.5 -9v-122q0 -8 -2.5 -11t-9.5 -3l-280 3v-113h274q7 0 9 -2.5
t2 -11.5v-122q0 -9 -2 -11.5t-9 -2.5h-274v-116l289 3q7 0 8.5 -1.5t1.5 -11.5v-129zM433 229v325q-20 -54 -29 -75l-125 -250h154z" />
    <glyph glyph-name="Ccedilla" unicode="&#xc7;" horiz-adv-x="720" 
d="M708 190q-30 -72 -93 -127t-148 -72q14 -25 14 -52q0 -61 -37 -97.5t-107 -36.5q-97 0 -124 80q-3 8 4 10l68 34q9 4 12 -4q11 -21 36 -21q20 0 36 12.5t16 40.5q0 14 -8 26q-149 6 -243 108t-94 245q0 153 101 254.5t249 101.5q116 0 195 -53.5t116 -137.5q7 -18 -3 -18
l-149 -58q-9 0 -9 5q-44 91 -146 91q-74 0 -119 -52.5t-45 -133.5q0 -88 49 -135t118 -47q100 0 140 84q0 7 12 7l150 -41q9 0 9 -13z" />
    <glyph glyph-name="Egrave" unicode="&#xc8;" horiz-adv-x="585" 
d="M554 14q0 -9 -2 -11.5t-9 -2.5h-457q-7 0 -9 2.5t-2 11.5v654v2q0 6 1 7t8 1h452q8 0 9.5 -2t1.5 -11v-122q0 -14 -11 -14l-286 3v-113h280q7 0 8.5 -2.5t1.5 -11.5v-122q0 -9 -1.5 -11.5t-8.5 -2.5h-280v-116l293 3q8 0 9.5 -1.5t1.5 -11.5v-129zM405 718q1 -1 -2.5 -3
t-8.5 -4t-11 -4t-11.5 -2t-9.5 1q-32 15 -59.5 29.5l-60.5 31.5l-59 30q1 2 -7 19q20 13 61.5 38l62.5 38q4 3 8 -2z" />
    <glyph glyph-name="Eacute" unicode="&#xc9;" horiz-adv-x="585" 
d="M554 14q0 -9 -2 -11.5t-9 -2.5h-457q-7 0 -9 2.5t-2 11.5v654v2q0 6 1 7t8 1h452q8 0 9.5 -2t1.5 -11v-122q0 -14 -11 -14l-286 3v-113h280q7 0 8.5 -2.5t1.5 -11.5v-122q0 -9 -1.5 -11.5t-8.5 -2.5h-280v-116l293 3q8 0 9.5 -1.5t1.5 -11.5v-129zM470 816q2 -2 0.5 -6
t-4.5 -8l-2 -5l-81 -41.5l-99 -49.5q-4 -1 -9 -1t-11 2l-11.5 4t-8.5 4t-3 3l98 172q3 6 7 2l62.5 -38t61.5 -38z" />
    <glyph glyph-name="Ecircumflex" unicode="&#xca;" horiz-adv-x="585" 
d="M554 14q0 -9 -2 -11.5t-9 -2.5h-457q-7 0 -9 2.5t-2 11.5v654v2q0 6 1 7t8 1h452q8 0 9.5 -2t1.5 -11v-122q0 -14 -11 -14l-286 3v-113h280q7 0 8.5 -2.5t1.5 -11.5v-122q0 -9 -1.5 -11.5t-8.5 -2.5h-280v-116l293 3q8 0 9.5 -1.5t1.5 -11.5v-129zM485 718q0 -4 -10 -4
h-98q-9 0 -15 5q-8 5 -20.5 16.5l-21.5 20.5l-8 9q-30 -35 -49 -46q-5 -5 -13 -5h-103q-7 0 -7 4q0 2 7 7l79 76.5t78 74.5q8 6 9 6q3 0 10 -7q7 -6 76.5 -72.5t77.5 -75.5q8 -8 8 -9z" />
    <glyph glyph-name="Edieresis" unicode="&#xcb;" horiz-adv-x="585" 
d="M554 14q0 -9 -2 -11.5t-9 -2.5h-457q-7 0 -9 2.5t-2 11.5v654v2q0 6 1 7t8 1h452q8 0 9.5 -2t1.5 -11v-122q0 -14 -11 -14l-286 3v-113h280q7 0 8.5 -2.5t1.5 -11.5v-122q0 -9 -1.5 -11.5t-8.5 -2.5h-280v-116l293 3q8 0 9.5 -1.5t1.5 -11.5v-129zM519 722q0 -8 -7 -8
h-158q-7 0 -7 11v97q0 9 7 9h157q3 0 4.5 -0.5t2.5 -2.5t1 -6v-100zM277 722q0 -8 -8 -8h-156q-6 0 -6 11v97q0 9 5 9h157q8 -3 8 -9v-100z" />
    <glyph glyph-name="Igrave" unicode="&#xcc;" horiz-adv-x="335" 
d="M260 9q0 -6 -1.5 -7.5t-8.5 -1.5h-166h-2q-5 0 -6 1t-1 8v660q0 7 1 8t6 1h2h166q7 0 8.5 -1.5t1.5 -7.5v-660zM226 720q1 -1 -2.5 -3t-8.5 -4t-11 -4t-11.5 -2t-9.5 1q-32 15 -59.5 29.5l-60.5 31.5l-59 30q1 2 -7 19q20 13 61.5 38l62.5 38q4 3 8 -2z" />
    <glyph glyph-name="Iacute" unicode="&#xcd;" horiz-adv-x="335" 
d="M260 9q0 -6 -1.5 -7.5t-8.5 -1.5h-166h-2q-5 0 -6 1t-1 8v660q0 7 1 8t6 1h2h166q7 0 8.5 -1.5t1.5 -7.5v-660zM325 820q2 -2 0.5 -6t-3.5 -8l-3 -5l-81 -41.5l-99 -49.5q-4 -1 -9 -1t-11 2l-11.5 4t-8.5 4t-3 3l98 172q3 6 7 2l62.5 -38t61.5 -38z" />
    <glyph glyph-name="Icircumflex" unicode="&#xce;" horiz-adv-x="335" 
d="M260 9q0 -6 -1.5 -7.5t-8.5 -1.5h-166h-2q-5 0 -6 1t-1 8v660q0 7 1 8t6 1h2h166q7 0 8.5 -1.5t1.5 -7.5v-660zM338 718q0 -4 -10 -4h-98q-9 0 -15 5q-8 5 -20.5 16.5t-20.5 20.5l-9 9q-30 -35 -49 -46q-5 -5 -13 -5h-103q-7 0 -7 4q0 2 7 7l79 76.5t78 74.5q8 6 9 6
q3 0 10 -7q7 -6 76.5 -72.5t77.5 -75.5q8 -8 8 -9z" />
    <glyph glyph-name="Idieresis" unicode="&#xcf;" horiz-adv-x="335" 
d="M260 9q0 -6 -1.5 -7.5t-8.5 -1.5h-166h-2q-5 0 -6 1t-1 8v660q0 7 1 8t6 1h2h166q7 0 8.5 -1.5t1.5 -7.5v-660zM369 722q0 -8 -7 -8h-158q-7 0 -7 11v97q0 9 7 9h157q3 0 4.5 -0.5t2.5 -2.5t1 -6v-100zM127 722q0 -8 -8 -8h-156q-6 0 -6 11v97q0 9 5 9h157q8 -3 8 -9
v-100z" />
    <glyph glyph-name="Eth" unicode="&#xd0;" horiz-adv-x="706" 
d="M668 339q0 -160 -89.5 -249.5t-240.5 -89.5h-255q-5 0 -6.5 1.5t-1.5 7.5v262h-40q-9 0 -9 10v112q0 9 9 9h40v266q0 10 8 10h278q145 0 226 -87.5t81 -251.5zM481 342q0 85 -36.5 139.5t-99.5 54.5h-94v-134h134q9 0 9 -10v-112q0 -9 -9 -9h-134v-127h92q138 0 138 198z
" />
    <glyph glyph-name="Ntilde" unicode="&#xd1;" horiz-adv-x="720" 
d="M645 -5q0 -12 -3 -13q-3 -2 -9 3q-67 50 -164 132.5l-160 140.5l-63 57v-306q0 -7 -1 -8t-8 -1h-151q-10 0 -10 10q-6 296 0 678q0 6 3 8q3 3 8 -1q64 -45 161 -127.5l162 -141.5l65 -60v300q0 8 1 10t7 2h152q7 0 8.5 -2t1.5 -10q6 -277 0 -671zM536 805q-1 -6 -9 -22
t-22 -37.5t-38.5 -37.5t-51.5 -16q-35 0 -69 22q-41 24 -63 24q-27 0 -51 -21l-22 -22q-4 -3 -11 0t-7 10q1 60 36 95t86 35q36 0 68 -21q4 -2 14.5 -9.5l15 -10.5t13 -6t16.5 -3q27 0 47 10q7 4 18.5 12.5t12.5 9.5q5 4 11.5 -0.5t5.5 -11.5z" />
    <glyph glyph-name="Ograve" unicode="&#xd2;" horiz-adv-x="790" 
d="M750 337q0 -148 -102 -251t-253 -103t-253 103t-102 251t102.5 251.5t252.5 103.5t252.5 -103.5t102.5 -251.5zM563 337q0 80 -45.5 132t-122.5 52q-79 0 -123.5 -52t-44.5 -132t44.5 -131.5t123.5 -51.5q78 0 123 51.5t45 131.5zM454 720q1 -1 -2.5 -3t-8.5 -4t-11 -4
t-11.5 -2t-9.5 1q-32 15 -59.5 29.5l-60.5 31.5l-59 30q1 2 -7 19q20 13 61.5 38l62.5 38q4 3 8 -2z" />
    <glyph glyph-name="Oacute" unicode="&#xd3;" horiz-adv-x="790" 
d="M750 337q0 -148 -102 -251t-253 -103t-253 103t-102 251t102.5 251.5t252.5 103.5t252.5 -103.5t102.5 -251.5zM563 337q0 80 -45.5 132t-122.5 52q-79 0 -123.5 -52t-44.5 -132t44.5 -131.5t123.5 -51.5q78 0 123 51.5t45 131.5zM572 819q2 -2 0.5 -6t-4.5 -9l-2 -4
l-81 -41.5l-99 -49.5q-4 -1 -9 -1t-11 2l-11.5 4t-8.5 4t-3 3l98 172q3 6 7 2l62.5 -38t61.5 -38z" />
    <glyph glyph-name="Ocircumflex" unicode="&#xd4;" horiz-adv-x="790" 
d="M750 337q0 -148 -102 -251t-253 -103t-253 103t-102 251t102.5 251.5t252.5 103.5t252.5 -103.5t102.5 -251.5zM563 337q0 80 -45.5 132t-122.5 52q-79 0 -123.5 -52t-44.5 -132t44.5 -131.5t123.5 -51.5q78 0 123 51.5t45 131.5zM565 718q0 -4 -10 -4h-98q-9 0 -15 5
q-8 5 -20.5 16.5l-21.5 20.5l-8 9q-30 -35 -49 -46q-5 -5 -13 -5h-103q-7 0 -7 4q0 2 7 7l79 76.5t78 74.5q8 6 9 6q3 0 10 -7q7 -6 76.5 -72.5t77.5 -75.5q8 -8 8 -9z" />
    <glyph glyph-name="Otilde" unicode="&#xd5;" horiz-adv-x="790" 
d="M750 337q0 -148 -102 -251t-253 -103t-253 103t-102 251t102.5 251.5t252.5 103.5t252.5 -103.5t102.5 -251.5zM563 337q0 80 -45.5 132t-122.5 52q-79 0 -123.5 -52t-44.5 -132t44.5 -131.5t123.5 -51.5q78 0 123 51.5t45 131.5zM575 824q-1 -6 -9 -22t-22 -37.5
t-38.5 -37.5t-51.5 -16q-35 0 -69 22q-41 24 -63 24q-26 0 -51 -21l-22 -22q-5 -3 -11.5 0t-6.5 10q1 60 36 95t86 35q36 0 68 -21q4 -2 14.5 -9.5l15 -10.5t13 -6t16.5 -3q27 0 47 10q7 4 18.5 12.5t12.5 9.5q5 4 11.5 -0.5t5.5 -11.5z" />
    <glyph glyph-name="Odieresis" unicode="&#xd6;" horiz-adv-x="790" 
d="M750 341q0 -148 -102 -251t-253 -103t-253 103t-102 251t102.5 251.5t252.5 103.5t252.5 -103.5t102.5 -251.5zM563 341q0 80 -45.5 132t-122.5 52q-79 0 -123.5 -52t-44.5 -132t44.5 -131.5t123.5 -51.5q78 0 123 51.5t45 131.5zM594 715q0 -8 -7 -8h-158q-7 0 -7 11v97
q0 9 7 9h157q3 0 4.5 -0.5t2.5 -2.5t1 -6v-100zM352 715q0 -8 -8 -8h-156q-6 0 -6 11v97q0 9 5 9h157q8 -3 8 -9v-100z" />
    <glyph glyph-name="multiply" unicode="&#xd7;" 
d="M793 300q0 -154 -109.5 -263.5t-263.5 -109.5t-263.5 109.5t-109.5 263.5t109.5 263.5t263.5 109.5t263.5 -109.5t109.5 -263.5zM693 491l-48 -29l-9 78l-65 -109l-127 53l23 54l40 40l-103 33l-106 -73l82 -13l2 -49l-107 -51l-100 97l9 -104l-48 33l73 -189l193 38
l-127 -224l21 -51l48 24l67 220l-26 -218l46 -36l36 41l-25 215l63 -209l57 -9l16 43l-129 206l193 -22zM478 573l-32 -35l-35 -68l-13 48l12 17l-68 11l26 13l17 -5l-1 19l28 19zM658 436l-30 -128l-35 38l-38 -26l-28 30l-31 -20l-45 40l-35 -47l-52 44l-22 -53l-37 28
l-12 -35l-38 29l-34 -39l-38 91l33 -14l11 58l38 -48l128 53l21 -52l16 62l148 -56l47 59l8 -40zM559 94l-32 -18l-30 100zM448 53l-40 1l18 142zM353 160l-28 -107l-29 17z" />
    <glyph glyph-name="Oslash" unicode="&#xd8;" horiz-adv-x="790" 
d="M757 646q5 -6 -1 -12l-12 -11.5l-30 -28.5l-40 -38q76 -97 76 -219q0 -147 -104 -250.5t-251 -103.5q-135 0 -234 88l-88 -83q-6 -6 -13 4l-23 31q-5 7 1 13q2 2 12 11t29.5 28l39.5 38q-79 98 -79 224q0 147 104 251t251 104q140 0 240 -94l86 83q6 6 13 -3
q4 -5 12.5 -17zM508 478q-45 43 -113 43q-79 0 -123.5 -52t-44.5 -132q0 -57 23 -101zM563 337q0 53 -21 94l-256 -241q46 -36 109 -36q78 0 123 51.5t45 131.5z" />
    <glyph glyph-name="Ugrave" unicode="&#xd9;" horiz-adv-x="695" 
d="M630 246q0 -126 -69 -194.5t-213 -68.5q-140 0 -211.5 73t-71.5 200v416q0 4 0.5 5t4.5 1h168q5 0 6 -1t1 -7v-445q0 -47 31.5 -71t73.5 -24q41 0 73 24t32 71v446q0 7 6 7h164q4 0 4.5 -1t0.5 -6v-425zM428 718q1 -1 -2.5 -3t-8.5 -4t-11 -4t-11.5 -2t-9.5 1
q-32 15 -59.5 29.5l-60.5 31.5l-59 30q1 2 -7 19q20 13 61.5 38l62.5 38q4 3 8 -2z" />
    <glyph glyph-name="Uacute" unicode="&#xda;" horiz-adv-x="695" 
d="M630 246q0 -126 -69 -194.5t-213 -68.5q-140 0 -211.5 73t-71.5 200v416q0 4 0.5 5t4.5 1h168q5 0 6 -1t1 -7v-445q0 -47 31.5 -71t73.5 -24q41 0 73 24t32 71v446q0 7 6 7h164q4 0 4.5 -1t0.5 -6v-425zM511 816q2 -2 0.5 -6t-3.5 -8l-3 -5l-81 -41.5l-99 -49.5
q-4 -1 -9 -1t-11 2l-11.5 4t-8.5 4t-3 3l98 172q3 6 7 2l62.5 -38t61.5 -38z" />
    <glyph glyph-name="Ucircumflex" unicode="&#xdb;" horiz-adv-x="695" 
d="M630 246q0 -126 -69 -194.5t-213 -68.5q-140 0 -211.5 73t-71.5 200v416q0 4 0.5 5t4.5 1h168q5 0 6 -1t1 -7v-445q0 -47 31.5 -71t73.5 -24q41 0 73 24t32 71v446q0 7 6 7h164q4 0 4.5 -1t0.5 -6v-425zM521 718q0 -4 -10 -4h-98q-9 0 -15 5q-8 5 -20.5 16.5l-21.5 20.5
l-8 9q-30 -35 -49 -46q-5 -5 -13 -5h-103q-7 0 -7 4q0 2 7 7l79 76.5t78 74.5q8 6 9 6q3 0 10 -7q7 -6 76.5 -72.5t77.5 -75.5q8 -8 8 -9z" />
    <glyph glyph-name="Udieresis" unicode="&#xdc;" horiz-adv-x="695" 
d="M630 246q0 -126 -69 -194.5t-213 -68.5q-140 0 -211.5 73t-71.5 200v416q0 4 0.5 5t4.5 1h168q5 0 6 -1t1 -7v-445q0 -47 31.5 -71t73.5 -24q41 0 73 24t32 71v446q0 7 6 7h164q4 0 4.5 -1t0.5 -6v-425zM559 715q0 -8 -7 -8h-158q-7 0 -7 11v97q0 9 7 9h157q3 0 4.5 -0.5
t2.5 -2.5t1 -6v-100zM317 715q0 -8 -8 -8h-156q-6 0 -6 11v97q0 9 5 9h157q8 -3 8 -9v-100z" />
    <glyph glyph-name="Yacute" unicode="&#xdd;" horiz-adv-x="644" 
d="M640 653q-39 -87 -93 -196l-88 -175l-34 -66v-202q0 -10 -1.5 -12t-9.5 -2h-166q-5 0 -6 2t-1 12v197q-144 259 -241 454q-4 7 -4 9.5t1.5 3t8.5 0.5h169q18 0 26 -16l132 -290q93 205 125 288q5 11 8.5 14.5t12.5 3.5h147q16 0 18.5 -4t-4.5 -21zM497 802q2 -2 0.5 -6
t-3.5 -8l-3 -5l-81 -41.5l-99 -49.5q-4 -1 -9 -1t-11 2l-11.5 4t-8.5 4t-3 3l98 172q3 6 7 2l62.5 -38t61.5 -38z" />
    <glyph glyph-name="Thorn" unicode="&#xde;" horiz-adv-x="647" 
d="M622 338q0 -218 -225 -244l-142 -4v-81q0 -6 -1.5 -7.5t-7.5 -1.5h-162q-7 0 -8 1t-1 8v660q0 6 2 7.5t7 1.5h162h4t2.5 -1t2 -3t0.5 -5v-71h129q110 1 174 -71t64 -189zM437 344q0 50 -27 77.5t-73 27.5h-82v-212l84 3q50 2 74 30t24 74z" />
    <glyph glyph-name="germandbls" unicode="&#xdf;" horiz-adv-x="602" 
d="M575 182q0 -51 -18.5 -90t-48.5 -61t-63 -32.5t-67 -10.5q-48 0 -80 12q-10 3 -10 18v99q0 11 11 8q15 -4 37 -4q25 0 41.5 24.5t16.5 65.5q0 45 -28 70.5t-68 27.5q-7 0 -7 6v122q0 7 7 7q34 1 48.5 15t14.5 45q0 32 -18.5 50t-47.5 18q-31 0 -48 -21.5t-17 -59.5v-480
q0 -11 -8 -11h-154q-8 0 -8 13v476q0 103 65.5 164t169.5 61t164 -46.5t60 -129.5q0 -71 -37 -111t-124 -48q110 0 163.5 -55.5t53.5 -141.5z" />
    <glyph glyph-name="agrave" unicode="&#xe0;" horiz-adv-x="627" 
d="M567 14q0 -14 -8 -14h-142q-10 0 -10 9v63q-12 -37 -52 -58t-89 -21q-103 0 -169.5 70t-66.5 190q0 111 68 184.5t165 73.5q48 0 85.5 -23.5t49.5 -55.5v61q0 12 8 12h154q7 0 7 -9v-482zM398 250q0 48 -28.5 76.5t-71.5 28.5q-47 0 -74.5 -30t-27.5 -77q0 -45 29.5 -74
t72.5 -29q42 0 71 29.5t29 75.5zM344 552q1 -1 -2.5 -3t-8.5 -4t-11 -4t-11.5 -2t-9.5 1q-32 15 -59.5 29.5l-60.5 31.5l-59 30q1 2 -7 19q20 13 61.5 38l62.5 38q4 3 8 -2z" />
    <glyph glyph-name="aacute" unicode="&#xe1;" horiz-adv-x="627" 
d="M567 14q0 -14 -8 -14h-142q-10 0 -10 9v63q-12 -37 -52 -58t-89 -21q-103 0 -169.5 70t-66.5 190q0 111 68 184.5t165 73.5q48 0 85.5 -23.5t49.5 -55.5v61q0 12 8 12h154q7 0 7 -9v-482zM398 250q0 48 -28.5 76.5t-71.5 28.5q-47 0 -74.5 -30t-27.5 -77q0 -45 29.5 -74
t72.5 -29q42 0 71 29.5t29 75.5zM459 650q2 -2 0.5 -6t-3.5 -8l-3 -5l-81 -41.5l-99 -49.5q-4 -1 -9 -1t-11 2l-11.5 4t-8.5 4t-3 3l98 172q3 6 7 2l62.5 -38t61.5 -38z" />
    <glyph glyph-name="acircumflex" unicode="&#xe2;" horiz-adv-x="627" 
d="M567 14q0 -14 -8 -14h-142q-10 0 -10 9v63q-12 -37 -52 -58t-89 -21q-103 0 -169.5 70t-66.5 190q0 111 68 184.5t165 73.5q48 0 85.5 -23.5t49.5 -55.5v61q0 12 8 12h154q7 0 7 -9v-482zM398 250q0 48 -28.5 76.5t-71.5 28.5q-47 0 -74.5 -30t-27.5 -77q0 -45 29.5 -74
t72.5 -29q42 0 71 29.5t29 75.5zM471 554q0 -4 -10 -4h-98q-9 0 -15 5q-8 5 -20.5 16.5l-21.5 20.5l-8 9q-30 -35 -49 -46q-5 -5 -13 -5h-103q-7 0 -7 4q0 2 7 7l79 76.5t78 74.5q8 6 9 6q3 0 10 -7q7 -6 76.5 -72.5t77.5 -75.5q8 -8 8 -9z" />
    <glyph glyph-name="atilde" unicode="&#xe3;" horiz-adv-x="627" 
d="M567 14q0 -14 -8 -14h-142q-10 0 -10 9v63q-12 -37 -52 -58t-89 -21q-103 0 -169.5 70t-66.5 190q0 111 68 184.5t165 73.5q48 0 85.5 -23.5t49.5 -55.5v61q0 12 8 12h154q7 0 7 -9v-482zM398 250q0 48 -28.5 76.5t-71.5 28.5q-47 0 -74.5 -30t-27.5 -77q0 -45 29.5 -74
t72.5 -29q42 0 71 29.5t29 75.5zM478 649q-1 -6 -9 -22t-22 -37.5t-38.5 -37.5t-51.5 -16q-35 0 -69 22q-41 24 -63 24q-27 0 -51 -21l-6.5 -6.5t-8 -8.5t-7.5 -7t-11 0t-7 10q1 60 36 95t86 35q36 0 68 -21q4 -2 14.5 -9.5l15 -10.5t13 -6t16.5 -3q27 0 47 10
q7 4 18.5 12.5t12.5 9.5q5 4 11.5 -0.5t5.5 -11.5z" />
    <glyph glyph-name="adieresis" unicode="&#xe4;" horiz-adv-x="627" 
d="M567 14q0 -14 -8 -14h-142q-10 0 -10 9v63q-12 -37 -52 -58t-89 -21q-103 0 -169.5 70t-66.5 190q0 111 68 184.5t165 73.5q48 0 85.5 -23.5t49.5 -55.5v61q0 12 8 12h154q7 0 7 -9v-482zM398 250q0 48 -28.5 76.5t-71.5 28.5q-47 0 -74.5 -30t-27.5 -77q0 -45 29.5 -74
t72.5 -29q42 0 71 29.5t29 75.5zM507 556q0 -8 -7 -8h-158q-7 0 -7 11v97q0 9 7 9h157q3 0 4.5 -0.5t2.5 -2.5t1 -6v-100zM265 556q0 -8 -8 -8h-156q-6 0 -6 11v97q0 9 5 9h157q8 -3 8 -9v-100z" />
    <glyph glyph-name="aring" unicode="&#xe5;" horiz-adv-x="627" 
d="M567 14q0 -14 -8 -14h-142q-10 0 -10 9v63q-12 -37 -52 -58t-89 -21q-103 0 -169.5 70t-66.5 190q0 111 68 184.5t165 73.5q48 0 85.5 -23.5t49.5 -55.5v61q0 12 8 12h154q7 0 7 -9v-482zM398 250q0 48 -28.5 76.5t-71.5 28.5q-47 0 -74.5 -30t-27.5 -77q0 -45 29.5 -74
t72.5 -29q42 0 71 29.5t29 75.5zM424 657q0 -51 -36.5 -87t-87.5 -36t-87.5 36t-36.5 87t36.5 87.5t87.5 36.5t87.5 -36.5t36.5 -87.5zM356 657q0 23 -16.5 39.5t-39.5 16.5t-39.5 -16.5t-16.5 -39.5t16.5 -39.5t39.5 -16.5t39.5 16.5t16.5 39.5z" />
    <glyph glyph-name="ae" unicode="&#xe6;" horiz-adv-x="904" 
d="M887 290q0 -42 -6 -68q0 -12 -20 -12h-299q0 -39 29 -63.5t73 -24.5q54 0 96 50q0 6 9 0q3 -2 5 -5q41 -57 69 -100q8 -12 -5 -23q-26 -23 -75 -41t-102 -18q-56 0 -116.5 23.5t-84.5 61.5q-56 -79 -194 -79q-103 0 -169.5 67t-66.5 195q0 118 66.5 190t170.5 72
q43 0 79.5 -16t51.5 -45v39q0 12 8 12h110q12 0 11 -32q45 45 134 45q95 0 160.5 -62.5t65.5 -165.5zM731 298q-3 40 -25 62.5t-60 22.5t-59 -24.5t-25 -60.5h169zM398 250q0 48 -28.5 76.5t-71.5 28.5q-47 0 -74.5 -30t-27.5 -77q0 -45 29.5 -74t72.5 -29q42 0 71 29.5
t29 75.5z" />
    <glyph glyph-name="ccedilla" unicode="&#xe7;" horiz-adv-x="544" 
d="M533 128q-56 -117 -176 -140q30 -28 30 -65q0 -61 -35.5 -100.5t-101.5 -39.5q-91 0 -118 80q-3 10 4 10l71 32q4 0 5 -2q11 -21 34 -21q19 0 34 12.5t15 40.5q0 15 -9 29.5t-26 20.5q-104 11 -167 81.5t-63 180.5q0 117 74 195t192 78q84 0 146.5 -38t89.5 -111
q0 -15 -6 -15l-131 -55q-8 0 -8 6q-10 21 -35 34.5t-53 13.5q-48 0 -75.5 -29.5t-27.5 -76.5t29.5 -75.5t74.5 -28.5q29 0 53 14t33 35q0 12 15 5l126 -54q6 -3 6 -17z" />
    <glyph glyph-name="egrave" unicode="&#xe8;" horiz-adv-x="534" 
d="M519 290q0 -42 -6 -68q-2 -12 -20 -12h-299q1 -40 29 -64t73 -24q54 0 96 50q5 7 14 -5q41 -57 69 -100q8 -12 -5 -23q-26 -23 -75 -41t-102 -18q-116 0 -189.5 72.5t-73.5 197.5q0 116 71.5 189.5t191.5 73.5q95 0 160.5 -62.5t65.5 -165.5zM363 298q-3 40 -25 62.5
t-60 22.5t-59 -24.5t-25 -60.5h169zM350 552q1 -1 -2.5 -3t-8.5 -4t-11 -4t-11.5 -2t-9.5 1q-32 15 -59.5 29.5l-60.5 31.5l-59 30q1 2 -7 19q20 13 61.5 38l62.5 38q4 3 8 -2z" />
    <glyph glyph-name="eacute" unicode="&#xe9;" horiz-adv-x="534" 
d="M519 290q0 -42 -6 -68q-2 -12 -20 -12h-299q1 -40 29 -64t73 -24q54 0 96 50q5 7 14 -5q41 -57 69 -100q8 -12 -5 -23q-26 -23 -75 -41t-102 -18q-116 0 -189.5 72.5t-73.5 197.5q0 116 71.5 189.5t191.5 73.5q95 0 160.5 -62.5t65.5 -165.5zM363 298q-3 40 -25 62.5
t-60 22.5t-59 -24.5t-25 -60.5h169zM445 650q2 -2 0.5 -6t-3.5 -8l-3 -5l-81 -41.5l-99 -49.5q-4 -1 -9 -1t-11 2l-11.5 4t-8.5 4t-3 3l98 172q3 6 7 2l62.5 -38t61.5 -38z" />
    <glyph glyph-name="ecircumflex" unicode="&#xea;" horiz-adv-x="534" 
d="M519 290q0 -42 -6 -68q-2 -12 -20 -12h-299q1 -40 29 -64t73 -24q54 0 96 50q5 7 14 -5q41 -57 69 -100q8 -12 -5 -23q-26 -23 -75 -41t-102 -18q-116 0 -189.5 72.5t-73.5 197.5q0 116 71.5 189.5t191.5 73.5q95 0 160.5 -62.5t65.5 -165.5zM363 298q-3 40 -25 62.5
t-60 22.5t-59 -24.5t-25 -60.5h169zM452 554q0 -4 -10 -4h-98q-9 0 -15 5q-8 5 -20.5 16.5t-20.5 20.5l-9 9q-30 -35 -49 -46q-5 -5 -13 -5h-103q-7 0 -7 4q0 2 7 7l79 76.5t78 74.5q8 6 9 6q3 0 10 -7q7 -6 76.5 -72.5t77.5 -75.5q8 -8 8 -9z" />
    <glyph glyph-name="edieresis" unicode="&#xeb;" horiz-adv-x="534" 
d="M519 290q0 -42 -6 -68q-2 -12 -20 -12h-299q1 -40 29 -64t73 -24q54 0 96 50q5 7 14 -5q41 -57 69 -100q8 -12 -5 -23q-26 -23 -75 -41t-102 -18q-116 0 -189.5 72.5t-73.5 197.5q0 116 71.5 189.5t191.5 73.5q95 0 160.5 -62.5t65.5 -165.5zM363 298q-3 40 -25 62.5
t-60 22.5t-59 -24.5t-25 -60.5h169zM486 556q0 -8 -7 -8h-158q-7 0 -7 11v97q0 9 7 9h157q3 0 4.5 -0.5t2.5 -2.5t1 -6v-100zM244 556q0 -8 -8 -8h-156q-6 0 -6 11v97q0 9 5 9h157q8 -3 8 -9v-100z" />
    <glyph glyph-name="igrave" unicode="&#xec;" horiz-adv-x="290" 
d="M230 11q0 -11 -9 -11h-153q-6 0 -7 2t-1 12v479q0 9 1 10.5t6 1.5h153q6 0 8 -1.5t2 -10.5v-482zM224 553q1 -1 -2.5 -3t-8.5 -4t-11 -4t-11.5 -2t-9.5 1q-32 15 -59.5 29.5l-60.5 31.5l-59 30q1 2 -7 19q20 13 61.5 38l62.5 38q4 3 8 -2z" />
    <glyph glyph-name="iacute" unicode="&#xed;" horiz-adv-x="290" 
d="M230 11q0 -11 -9 -11h-153q-6 0 -7 2t-1 12v479q0 9 1 10.5t6 1.5h153q6 0 8 -1.5t2 -10.5v-482zM308 654q2 -2 0.5 -6t-4.5 -8l-2 -5l-81 -41.5l-99 -49.5q-4 -1 -9 -1t-11 2l-11.5 4t-8.5 4t-3 3l98 172q3 6 7 2l62.5 -38t61.5 -38z" />
    <glyph glyph-name="icircumflex" unicode="&#xee;" horiz-adv-x="290" 
d="M230 11q0 -11 -9 -11h-153q-6 0 -7 2t-1 12v479q0 9 1 10.5t6 1.5h153q6 0 8 -1.5t2 -10.5v-482zM313 554q0 -4 -10 -4h-98q-9 0 -15 5q-8 5 -20.5 16.5l-21.5 20.5l-8 9q-30 -35 -49 -46q-5 -5 -13 -5h-103q-7 0 -7 4q0 2 7 7l79 76.5t78 74.5q8 6 9 6q3 0 10 -7
q7 -6 76.5 -72.5t77.5 -75.5q8 -8 8 -9z" />
    <glyph glyph-name="idieresis" unicode="&#xef;" horiz-adv-x="290" 
d="M230 11q0 -11 -9 -11h-153q-6 0 -7 2t-1 12v479q0 9 1 10.5t6 1.5h153q6 0 8 -1.5t2 -10.5v-482zM350 556q0 -8 -7 -8h-158q-7 0 -7 11v97q0 9 7 9h157q3 0 4.5 -0.5t2.5 -2.5t1 -6v-100zM108 556q0 -8 -8 -8h-156q-6 0 -6 11v97q0 9 5 9h157q8 -3 8 -9v-100z" />
    <glyph glyph-name="eth" unicode="&#xf0;" horiz-adv-x="595" 
d="M564 241q0 -118 -74 -188t-193 -70q-118 0 -192.5 70t-74.5 188q0 94 51 161t138 88l-107 84q-8 5 0 13q15 15 50.5 54.5t49.5 53.5q6 7 13 0l126 -122l121 102q7 6 13 -2l60 -71q5 -7 -1 -13l-115 -97q34 -32 75 -76q26 -28 43 -76.5t17 -98.5zM398 246q0 48 -28.5 75.5
t-71.5 27.5t-72.5 -28t-29.5 -75q0 -46 30 -75.5t73 -29.5q42 0 70.5 28.5t28.5 76.5z" />
    <glyph glyph-name="ntilde" unicode="&#xf1;" horiz-adv-x="593" 
d="M536 15q0 -10 -2 -12.5t-8 -2.5h-151q-6 0 -7.5 1.5t-1.5 9.5v298q0 32 -18 49t-45 17q-52 0 -73 -48v-316q0 -11 -7 -11h-155q-6 0 -7 2t-1 12v479q0 9 1 10.5t6 1.5h147q11 0 11 -16v-65q15 44 56.5 70t99.5 26q155 0 155 -165v-340zM478 658q-1 -6 -9 -22t-22 -37.5
t-38.5 -37.5t-51.5 -16q-35 0 -69 22q-41 24 -63 24q-27 0 -51 -21l-22 -22q-4 -3 -11 0t-7 10q1 60 36 95t86 35q36 0 68 -21q4 -2 14.5 -9.5l15 -10.5t13 -6t16.5 -3q27 0 47 10q7 4 18.5 12.5t12.5 9.5q5 4 11.5 -0.5t5.5 -11.5z" />
    <glyph glyph-name="ograve" unicode="&#xf2;" horiz-adv-x="595" 
d="M564 251q0 -119 -75 -193.5t-192 -74.5q-116 0 -191.5 74.5t-75.5 193.5q0 116 74.5 192.5t192.5 76.5q117 0 192 -75t75 -194zM398 251q0 48 -29 78t-71 30q-43 0 -72.5 -30.5t-29.5 -77.5t30 -78.5t73 -31.5q42 0 70.5 31t28.5 79zM367 554q1 -1 -2.5 -3t-8.5 -4
t-11 -4t-11.5 -2t-9.5 1q-32 15 -59.5 29.5l-60.5 31.5l-59 30q1 2 -7 19q20 13 61.5 38l62.5 38q4 3 8 -2z" />
    <glyph glyph-name="oacute" unicode="&#xf3;" horiz-adv-x="595" 
d="M564 251q0 -119 -75 -193.5t-192 -74.5q-116 0 -191.5 74.5t-75.5 193.5q0 116 74.5 192.5t192.5 76.5q117 0 192 -75t75 -194zM398 251q0 48 -29 78t-71 30q-43 0 -72.5 -30.5t-29.5 -77.5t30 -78.5t73 -31.5q42 0 70.5 31t28.5 79zM469 652q2 -2 0.5 -6t-3.5 -8l-3 -5
l-81 -41.5l-99 -49.5q-4 -1 -9 -1t-11 2l-11.5 4t-8.5 4t-3 3l98 172q3 6 7 2l62.5 -38t61.5 -38z" />
    <glyph glyph-name="ocircumflex" unicode="&#xf4;" horiz-adv-x="595" 
d="M564 251q0 -119 -75 -193.5t-192 -74.5q-116 0 -191.5 74.5t-75.5 193.5q0 116 74.5 192.5t192.5 76.5q117 0 192 -75t75 -194zM398 251q0 48 -29 78t-71 30q-43 0 -72.5 -30.5t-29.5 -77.5t30 -78.5t73 -31.5q42 0 70.5 31t28.5 79zM467 554q0 -4 -10 -4h-98q-9 0 -15 5
q-8 5 -20.5 16.5l-21.5 20.5l-8 9q-30 -35 -49 -46q-5 -5 -13 -5h-103q-7 0 -7 4q0 2 7 7l79 76.5t78 74.5q8 6 9 6q3 0 10 -7q7 -6 76.5 -72.5t77.5 -75.5q8 -8 8 -9z" />
    <glyph glyph-name="otilde" unicode="&#xf5;" horiz-adv-x="595" 
d="M564 251q0 -119 -75 -193.5t-192 -74.5q-116 0 -191.5 74.5t-75.5 193.5q0 116 74.5 192.5t192.5 76.5q117 0 192 -75t75 -194zM398 251q0 48 -29 78t-71 30q-43 0 -72.5 -30.5t-29.5 -77.5t30 -78.5t73 -31.5q42 0 70.5 31t28.5 79zM475 656q-1 -6 -9 -22t-22 -37.5
t-38.5 -37.5t-51.5 -16q-35 0 -69 22q-41 24 -63 24q-26 0 -51 -21l-6.5 -6.5t-8 -8.5t-7.5 -7q-5 -3 -11.5 0t-6.5 10q1 60 36 95t86 35q36 0 68 -21q4 -2 14.5 -9.5l15 -10.5t13 -6t16.5 -3q27 0 47 10q7 4 18.5 12.5t12.5 9.5q5 4 11.5 -0.5t5.5 -11.5z" />
    <glyph glyph-name="odieresis" unicode="&#xf6;" horiz-adv-x="595" 
d="M564 251q0 -119 -75 -193.5t-192 -74.5q-116 0 -191.5 74.5t-75.5 193.5q0 116 74.5 192.5t192.5 76.5q117 0 192 -75t75 -194zM398 251q0 48 -29 78t-71 30q-43 0 -72.5 -30.5t-29.5 -77.5t30 -78.5t73 -31.5q42 0 70.5 31t28.5 79zM502 556q0 -8 -7 -8h-158q-7 0 -7 11
v97q0 9 7 9h157q3 0 4.5 -0.5t2.5 -2.5t1 -6v-100zM260 556q0 -8 -8 -8h-156q-6 0 -6 11v97q0 9 5 9h157q8 -3 8 -9v-100z" />
    <glyph glyph-name="divide" unicode="&#xf7;" 
d="M793 300q0 -154 -109.5 -263.5t-263.5 -109.5t-263.5 109.5t-109.5 263.5t109.5 263.5t263.5 109.5t263.5 -109.5t109.5 -263.5zM693 491l-48 -29l-9 78l-65 -109l-127 53l23 54l40 40l-103 33l-106 -73l82 -13l2 -49l-107 -51l-100 97l9 -104l-48 33l73 -189l193 38
l-127 -224l21 -51l48 24l67 220l-26 -218l46 -36l36 41l-25 215l63 -209l57 -9l16 43l-129 206l193 -22zM478 573l-32 -35l-35 -68l-13 48l12 17l-68 11l26 13l17 -5l-1 19l28 19zM658 436l-30 -128l-35 38l-38 -26l-28 30l-31 -20l-45 40l-35 -47l-52 44l-22 -53l-37 28
l-12 -35l-38 29l-34 -39l-38 91l33 -14l11 58l38 -48l128 53l21 -52l16 62l148 -56l47 59l8 -40zM559 94l-32 -18l-30 100zM448 53l-40 1l18 142zM353 160l-28 -107l-29 17z" />
    <glyph glyph-name="oslash" unicode="&#xf8;" horiz-adv-x="595" 
d="M573 482q5 -7 -1 -13l-58 -54q50 -69 50 -164q0 -119 -75 -193.5t-192 -74.5q-104 0 -175 59q-47 -43 -53 -50q-7 -7 -13 3l-22 30q-6 5 1 12l48 45q-53 69 -53 169q0 116 74.5 192.5t192.5 76.5q108 0 180 -63l60 58q5 5 13 -4q3 -4 23 -29zM358 343q-25 19 -60 19
q-44 0 -74.5 -31t-30.5 -80q0 -26 12 -53zM401 251q0 27 -9 48l-151 -143q28 -18 58 -18q43 0 72.5 31.5t29.5 81.5z" />
    <glyph glyph-name="ugrave" unicode="&#xf9;" horiz-adv-x="593" 
d="M531 12q0 -9 -1 -10.5t-6 -1.5h-145q-7 0 -10 2.5t-3 12.5v50q-29 -80 -156 -80q-78 0 -117 42t-38 123l3 338q0 17 10 17h151q9 0 9 -14l-3 -299q0 -32 18 -49t45 -17q55 0 73 48v320q0 11 7 11h155q5 0 6.5 -2t1.5 -12v-479zM376 553q1 -1 -2.5 -3t-8.5 -4t-11 -4
t-11.5 -2t-9.5 1q-32 15 -59.5 29.5l-60.5 31.5l-59 30q1 2 -7 19q20 13 61.5 38l62.5 38q4 3 8 -2z" />
    <glyph glyph-name="uacute" unicode="&#xfa;" horiz-adv-x="593" 
d="M531 12q0 -9 -1 -10.5t-6 -1.5h-145q-7 0 -10 2.5t-3 12.5v50q-29 -80 -156 -80q-78 0 -117 42t-38 123l3 338q0 17 10 17h151q9 0 9 -14l-3 -299q0 -32 18 -49t45 -17q55 0 73 48v320q0 11 7 11h155q5 0 6.5 -2t1.5 -12v-479zM459 651q2 -2 0.5 -6l-3.5 -9l-3 -4
l-81 -41.5l-99 -49.5q-4 -1 -9 -1t-11 2l-11.5 4t-8.5 4t-3 3l98 172q3 6 7 2l62.5 -38t61.5 -38z" />
    <glyph glyph-name="ucircumflex" unicode="&#xfb;" horiz-adv-x="593" 
d="M531 12q0 -9 -1 -10.5t-6 -1.5h-145q-7 0 -10 2.5t-3 12.5v50q-29 -80 -156 -80q-78 0 -117 42t-38 123l3 338q0 17 10 17h151q9 0 9 -14l-3 -299q0 -32 18 -49t45 -17q55 0 73 48v320q0 11 7 11h155q5 0 6.5 -2t1.5 -12v-479zM467 554q0 -4 -10 -4h-98q-9 0 -15 5
q-8 5 -20.5 16.5l-21.5 20.5l-8 9q-30 -35 -49 -46q-5 -5 -13 -5h-103q-7 0 -7 4q0 2 7 7l79 76.5t78 74.5q8 6 9 6q3 0 10 -7q7 -6 76.5 -72.5t77.5 -75.5q8 -8 8 -9z" />
    <glyph glyph-name="udieresis" unicode="&#xfc;" horiz-adv-x="593" 
d="M531 12q0 -9 -1 -10.5t-6 -1.5h-145q-7 0 -10 2.5t-3 12.5v50q-29 -80 -156 -80q-78 0 -117 42t-38 123l3 338q0 17 10 17h151q9 0 9 -14l-3 -299q0 -32 18 -49t45 -17q55 0 73 48v320q0 11 7 11h155q5 0 6.5 -2t1.5 -12v-479zM501 556q0 -8 -7 -8h-158q-7 0 -7 11v97
q0 9 7 9h157q3 0 4.5 -0.5t2.5 -2.5t1 -6v-100zM259 556q0 -8 -8 -8h-156q-6 0 -6 11v97q0 9 5 9h157q8 -3 8 -9v-100z" />
    <glyph glyph-name="yacute" unicode="&#xfd;" horiz-adv-x="520" 
d="M520 491q-126 -350 -248 -650q-3 -7 -11 -7h-145q-9 0 -10.5 2t1.5 10l82 205l-189 440q-3 11 -0.5 12.5t10.5 1.5h157q9 0 12 -9q1 -1 1 -2l95 -244l72 244q3 11 16 11h150q12 0 7 -14zM413 644q2 -2 0.5 -6t-3.5 -8l-3 -5l-81 -41.5l-99 -49.5q-4 -1 -9 -1t-11 2
l-11.5 4t-8.5 4t-3 3l98 172q3 6 7 2l62.5 -38t61.5 -38z" />
    <glyph glyph-name="thorn" unicode="&#xfe;" horiz-adv-x="634" 
d="M597 254q0 -132 -68 -200t-178 -63q-38 2 -73 18.5t-48 40.5v-203q0 -13 -8 -13h-155q-5 0 -6 2t-1 12v832q0 9 1 10.5t6 1.5h154q5 0 6.5 -1.5t1.5 -10.5v-235q14 25 53 47t77 22q101 0 169.5 -65.5t68.5 -194.5zM431 250q0 47 -29.5 76.5t-70.5 29.5q-45 0 -73 -29.5
t-28 -76.5q0 -49 31 -77.5t73 -28.5q40 0 68.5 29.5t28.5 76.5z" />
    <glyph glyph-name="ydieresis" unicode="&#xff;" horiz-adv-x="520" 
d="M520 491q-126 -350 -248 -650q-3 -7 -11 -7h-145q-9 0 -10.5 2t1.5 10l82 205l-189 440q-3 11 -0.5 12.5t10.5 1.5h157q9 0 12 -9q1 -1 1 -2l95 -244l72 244q3 11 16 11h150q12 0 7 -14zM467 558q0 -8 -7 -8h-158q-7 0 -7 11v97q0 9 7 9h157q3 0 4.5 -0.5t2.5 -2.5t1 -6
v-100zM225 558q0 -8 -8 -8h-156q-6 0 -6 11v97q0 9 5 9h157q8 -3 8 -9v-100z" />
    <glyph glyph-name="dotlessi" unicode="&#x131;" horiz-adv-x="290" 
d="M230 11q0 -11 -9 -11h-153q-6 0 -7 2t-1 12v479q0 9 1 10.5t6 1.5h153q6 0 8 -1.5t2 -10.5v-482z" />
    <glyph glyph-name="Lslash" unicode="&#x141;" horiz-adv-x="521" 
d="M515 9q0 -6 -1 -7.5t-7 -1.5h-423q-7 0 -8 1t-1 8v170l-26 -15q-14 -7 -18 1q-8 16 -40 72q-7 10 7 19q47 28 77 43v39v331q0 7 1 8t6 1h2h162q6 0 7.5 -1.5t1.5 -7.5v-266l114 66q15 8 21 -1q7 -11 21 -37.5l19 -35.5t-11 -18l-164 -94v-124l251 5q9 0 9 -10v-145z" />
    <glyph glyph-name="lslash" unicode="&#x142;" horiz-adv-x="290" 
d="M306 345q5 -9 -11 -18q-4 -2 -28 -15l-37 -20v-281q0 -11 -8 -11h-154q-6 0 -7 2t-1 12v186l-11 -6q-14 -7 -18 1q-23 45 -40 72q-6 11 7 19q2 1 62 33v360q0 9 1 11t7 2h153q6 0 7.5 -2t1.5 -11v-268q5 3 15 8q15 7 21 -1q7 -11 21 -37.5z" />
    <glyph glyph-name="OE" unicode="&#x152;" horiz-adv-x="864" 
d="M805 14q0 -9 -2 -11.5t-10 -2.5h-280q-30 0 -72 -2t-62 -2q-155 0 -247 90.5t-92 251.5q0 84 28.5 151t76.5 108t107 62.5t124 21.5q33 0 78 -1.5t59 -1.5h273q7 0 8.5 -2t1.5 -11v-121q0 -9 -1.5 -11.5t-8.5 -2.5l-229 2v-113h221q8 0 10 -2.5t2 -11.5v-122
q0 -9 -2 -11.5t-10 -2.5h-221v-116l236 2q9 0 10.5 -1.5t1.5 -11.5v-128zM385 151v373q-74 -9 -116 -57.5t-42 -129.5q0 -83 46 -133t112 -53z" />
    <glyph glyph-name="oe" unicode="&#x153;" horiz-adv-x="903" 
d="M883 290q0 -42 -6 -68q-2 -12 -20 -12h-299q1 -40 29 -64t73 -24q54 0 96 50q5 7 14 -5q41 -57 69 -100q8 -12 -5 -23q-26 -23 -75 -41t-102 -18q-109 0 -179 62q-71 -64 -181 -64q-116 0 -191.5 74.5t-75.5 193.5q0 116 74.5 192.5t192.5 76.5q101 0 181 -70
q68 68 179 68q95 0 160.5 -62.5t65.5 -165.5zM727 298q-3 40 -25 62.5t-60 22.5t-59 -24.5t-25 -60.5h169zM398 251q0 48 -29 78t-71 30q-43 0 -72.5 -30.5t-29.5 -77.5t30 -78.5t73 -31.5q42 0 70.5 31t28.5 79z" />
    <glyph glyph-name="Scaron" unicode="&#x160;" horiz-adv-x="609" 
d="M575 205q0 -110 -79.5 -166t-204.5 -56q-202 0 -255 153q-5 15 4 19l123 50q5 2 6.5 2t2.5 -1.5t2 -5.5q10 -31 43.5 -56t77.5 -25q101 0 101 67q0 32 -27.5 51t-93.5 27q-4 0 -12 1t-12 2q-94 9 -149.5 61.5t-55.5 142.5q0 101 68.5 161t197.5 60q96 0 158.5 -40.5
t82.5 -106.5q4 -13 -7 -17l-117 -47q-9 -4 -12 4q-11 32 -43 55.5t-69 23.5q-92 0 -92 -63q0 -34 29 -51t98 -29q2 0 33 -5q202 -28 202 -211zM470 870q0 -2 -7 -7l-79 -76.5t-78 -74.5q-8 -6 -9 -6q-3 0 -10 7q-7 6 -76.5 72.5t-77.5 75.5q-8 8 -8 9q0 4 10 4h98q9 0 15 -5
q8 -5 20.5 -16.5l21.5 -20.5l8 -9q30 35 49 46q5 5 13 5h103q7 0 7 -4z" />
    <glyph glyph-name="scaron" unicode="&#x161;" horiz-adv-x="508" 
d="M479 168q0 -85 -61 -135.5t-169 -50.5q-91 0 -142 30t-77 87q-4 12 3 15l109 42q7 2 9 -4q8 -23 31 -38.5t50 -15.5q32 0 48.5 11t16.5 29q0 20 -20.5 33t-77.5 27q-80 20 -120.5 54t-40.5 104q0 78 60 121t165 43q81 0 131.5 -28.5t65.5 -79.5q2 -12 -5 -14l-111 -39
q-7 -3 -11 3q-28 45 -76 45q-56 0 -56 -35q0 -15 22.5 -24.5t86.5 -22.5q81 -17 125 -53.5t44 -103.5zM424 700q0 -2 -7 -7l-79 -76.5t-78 -74.5q-8 -6 -9 -6q-3 0 -10 7q-7 6 -76.5 72.5t-77.5 75.5q-8 8 -8 9q0 4 10 4h98q9 0 15 -5q8 -5 20.5 -16.5l21.5 -20.5l8 -9
q30 35 49 46q5 5 13 5h103q7 0 7 -4z" />
    <glyph glyph-name="Ydieresis" unicode="&#x178;" horiz-adv-x="644" 
d="M640 653q-39 -87 -93 -196l-88 -175l-34 -66v-202q0 -10 -1.5 -12t-9.5 -2h-166q-5 0 -6 2t-1 12v197q-144 259 -241 454q-4 7 -4 9.5t1.5 3t8.5 0.5h169q18 0 26 -16l132 -290q93 205 125 288q5 11 8.5 14.5t12.5 3.5h147q16 0 18.5 -4t-4.5 -21zM540 722q0 -8 -7 -8
h-158q-7 0 -7 11v97q0 9 7 9h157q3 0 4.5 -0.5t2.5 -2.5t1 -6v-100zM298 722q0 -8 -8 -8h-156q-6 0 -6 11v97q0 9 5 9h157q8 -3 8 -9v-100z" />
    <glyph glyph-name="Zcaron" unicode="&#x17d;" horiz-adv-x="551" 
d="M537 660q-44 -100 -112.5 -227t-115.5 -204l-47 -77q171 0 257 3q13 0 13 -11v-133q0 -11 -10 -11h-506q-5 0 -6 7.5t2 13.5q37 80 109.5 207l126.5 214l53 86q-26 -1 -126 -0.5t-126 -0.5q-7 0 -8 1t-1 8v129q0 8 2.5 10.5t12.5 2.5h478q3 0 4 -7t0 -11zM461 856
q0 -2 -7 -7l-79 -76.5t-78 -74.5q-8 -6 -9 -6q-3 0 -10 7q-7 6 -76.5 72.5t-77.5 75.5q-8 8 -8 9q0 4 10 4h98q9 0 15 -5q8 -5 20.5 -16.5t20.5 -20.5l9 -9q30 35 49 46q5 5 13 5h103q7 0 7 -4z" />
    <glyph glyph-name="zcaron" unicode="&#x17e;" horiz-adv-x="456" 
d="M451 488l-212 -357q127 3 188 3q9 0 11.5 -2t2.5 -9v-114q0 -6 -2.5 -7.5t-11.5 -1.5h-418q-17 0 -8 16l204 366q-113 -3 -162 -4q-13 0 -13 9v108q0 10 9 10h406q16 0 6 -17zM407 698q0 -2 -7 -7l-79 -76.5t-78 -74.5q-8 -6 -9 -6q-3 0 -10 7q-7 6 -76.5 72.5
t-77.5 75.5q-8 8 -8 9q0 4 10 4h98q9 0 15 -5q8 -5 20.5 -16.5t20.5 -20.5l9 -9q30 35 49 46q5 5 13 5h103q7 0 7 -4z" />
    <glyph glyph-name="florin" unicode="&#x192;" horiz-adv-x="497" 
d="M447 279q0 -10 -13 -10h-104v-217q0 -109 -42 -160t-130 -51q-50 0 -107 20q-10 3 -9 15q6 42 12 108q1 17 19 12q31 -8 52 10t21 45v216h-85q-13 0 -13 12v118q0 10 13 10h85v124q0 62 34.5 104.5t118.5 42.5h128q5 0 6 -1.5t1 -6.5v-2v-120q0 -7 -0.5 -8t-6.5 -1h-97
v-130h104q13 0 13 -12v-118z" />
    <glyph glyph-name="circumflex" unicode="&#x2c6;" horiz-adv-x="500" 
d="M424 554q0 -4 -10 -4h-98q-9 0 -15 5q-8 5 -20.5 16.5t-20.5 20.5l-9 9q-30 -35 -49 -46q-5 -5 -13 -5h-103q-7 0 -7 4q0 2 7 7l79 76.5t78 74.5q8 6 9 6q3 0 10 -7q7 -6 76.5 -72.5t77.5 -75.5q8 -8 8 -9z" />
    <glyph glyph-name="caron" unicode="&#x2c7;" horiz-adv-x="500" 
d="M427 698q0 -2 -7 -7l-79 -76.5t-78 -74.5q-8 -6 -9 -6q-3 0 -10 7q-7 6 -76.5 72.5t-77.5 75.5q-8 8 -8 9q0 4 10 4h98q9 0 15 -5q8 -5 20.5 -16.5t20.5 -20.5l9 -9q30 35 49 46q5 5 13 5h103q7 0 7 -4z" />
    <glyph glyph-name="breve" unicode="&#x2d8;" horiz-adv-x="500" 
d="M434 648q7 -7 -2 -18q-32 -42 -73 -63t-108 -21q-111 0 -178 85q-9 10 -1 18q6 6 25 22t23 19q10 8 17 -1q44 -54 114 -54q79 0 116 53q7 10 17 2z" />
    <glyph glyph-name="dotaccent" unicode="&#x2d9;" horiz-adv-x="500" 
d="M328 563q0 -13 -10 -13h-135q-11 0 -11 13v124q0 13 10 13h135q11 0 11 -13v-124z" />
    <glyph glyph-name="ring" unicode="&#x2da;" horiz-adv-x="500" 
d="M374 657q0 -51 -36.5 -87t-87.5 -36t-87.5 36t-36.5 87t36.5 87.5t87.5 36.5t87.5 -36.5t36.5 -87.5zM306 657q0 23 -16.5 39.5t-39.5 16.5t-39.5 -16.5t-16.5 -39.5t16.5 -39.5t39.5 -16.5t39.5 16.5t16.5 39.5z" />
    <glyph glyph-name="ogonek" unicode="&#x2db;" horiz-adv-x="500" 
d="M381 -145q-12 -39 -43.5 -59.5t-74.5 -20.5q-123 0 -123 108q0 37 24.5 70t54.5 47h66q-26 -13 -50 -38.5t-24 -52.5q0 -54 45 -54q30 0 48 26q4 6 11 4l62 -20q5 -1 4 -10z" />
    <glyph glyph-name="tilde" unicode="&#x2dc;" horiz-adv-x="500" 
d="M428 662q-1 -6 -9 -22t-22 -37.5t-38.5 -37.5t-51.5 -16q-35 0 -69 22q-41 24 -63 24q-27 0 -51 -21l-22 -22q-4 -3 -11 0t-7 10q1 60 36 95t86 35q36 0 68 -21q4 -2 14.5 -9.5l15 -10.5t13 -6t16.5 -3q27 0 47 10q7 4 18.5 12.5t12.5 9.5q5 4 11.5 -0.5t5.5 -11.5z" />
    <glyph glyph-name="hungarumlaut" unicode="&#x2dd;" horiz-adv-x="500" 
d="M469 650q2 -2 0.5 -6t-3.5 -8l-2 -5l-181 -91q-5 -2 -13.5 0t-15 6t-5.5 6l98 172q3 6 7 2zM264 650q2 -2 0.5 -6t-4.5 -8l-2 -5l-180 -91q-5 -2 -14 0t-15 6t-5 6l97 172q4 5 8 2z" />
    <glyph glyph-name="Delta" unicode="&#x394;" 
d="M793 300q0 -154 -109.5 -263.5t-263.5 -109.5t-263.5 109.5t-109.5 263.5t109.5 263.5t263.5 109.5t263.5 -109.5t109.5 -263.5zM693 491l-48 -29l-9 78l-65 -109l-127 53l23 54l40 40l-103 33l-106 -73l82 -13l2 -49l-107 -51l-100 97l9 -104l-48 33l73 -189l193 38
l-127 -224l21 -51l48 24l67 220l-26 -218l46 -36l36 41l-25 215l63 -209l57 -9l16 43l-129 206l193 -22zM478 573l-32 -35l-35 -68l-13 48l12 17l-68 11l26 13l17 -5l-1 19l28 19zM658 436l-30 -128l-35 38l-38 -26l-28 30l-31 -20l-45 40l-35 -47l-52 44l-22 -53l-37 28
l-12 -35l-38 29l-34 -39l-38 91l33 -14l11 58l38 -48l128 53l21 -52l16 62l148 -56l47 59l8 -40zM559 94l-32 -18l-30 100zM448 53l-40 1l18 142zM353 160l-28 -107l-29 17z" />
    <glyph glyph-name="Omega" unicode="&#x3a9;" 
d="M793 300q0 -154 -109.5 -263.5t-263.5 -109.5t-263.5 109.5t-109.5 263.5t109.5 263.5t263.5 109.5t263.5 -109.5t109.5 -263.5zM693 491l-48 -29l-9 78l-65 -109l-127 53l23 54l40 40l-103 33l-106 -73l82 -13l2 -49l-107 -51l-100 97l9 -104l-48 33l73 -189l193 38
l-127 -224l21 -51l48 24l67 220l-26 -218l46 -36l36 41l-25 215l63 -209l57 -9l16 43l-129 206l193 -22zM478 573l-32 -35l-35 -68l-13 48l12 17l-68 11l26 13l17 -5l-1 19l28 19zM658 436l-30 -128l-35 38l-38 -26l-28 30l-31 -20l-45 40l-35 -47l-52 44l-22 -53l-37 28
l-12 -35l-38 29l-34 -39l-38 91l33 -14l11 58l38 -48l128 53l21 -52l16 62l148 -56l47 59l8 -40zM559 94l-32 -18l-30 100zM448 53l-40 1l18 142zM353 160l-28 -107l-29 17z" />
    <glyph glyph-name="pi" unicode="&#x3c0;" horiz-adv-x="803" 
d="M774 306q0 -162 -109 -276.5t-263 -114.5q-155 0 -264 114.5t-109 276.5q0 163 109.5 278t263.5 115t263 -115t109 -278zM711 306q0 137 -91 235.5t-218 98.5q-128 0 -219 -98.5t-91 -235.5t91 -235t219 -98q127 0 218 98t91 235zM601 361q0 -130 -140 -146l-80 -3v-101
q0 -6 -5 -6h-121q-4 0 -4.5 0.5t-0.5 5.5v401q0 4 1 4.5t4 0.5h198q67 0 107.5 -43t40.5 -113zM473 365q0 58 -60 58h-32v-115l33 2q59 3 59 55z" />
    <glyph glyph-name="endash" unicode="&#x2013;" horiz-adv-x="432" 
d="M432 245q0 -5 -0.5 -7t-3.5 -3.5t-10 -1.5h-406q-8 0 -10.5 2t-2.5 10v111q0 8 2.5 10t10.5 2h406q10 0 12 -2t2 -10v-111z" />
    <glyph glyph-name="emdash" unicode="&#x2014;" horiz-adv-x="864" 
d="M864 245q0 -7 -2.5 -9.5t-11.5 -2.5h-838q-8 0 -10.5 2t-2.5 10v111q0 9 1.5 10.5t11.5 1.5h838q10 0 12 -2t2 -10v-111z" />
    <glyph glyph-name="quoteleft" unicode="&#x2018;" horiz-adv-x="253" 
d="M215 408q0 -5 -7 -9.5t-18 -4.5q-26 0 -29 6q-13 26 -138 251q-2 6 -2 15q0 12 4 12h183q7 0 7 -10v-260z" />
    <glyph glyph-name="quoteright" unicode="&#x2019;" horiz-adv-x="253" 
d="M232 666q0 -9 -2 -15q-125 -225 -138 -251q-3 -6 -29 -6q-11 0 -18 4.5t-7 9.5v260q0 10 7 10h183q4 0 4 -12z" />
    <glyph glyph-name="quotesinglbase" unicode="&#x201a;" horiz-adv-x="253" 
d="M232 166q0 -9 -2 -15q-125 -225 -138 -251q-3 -6 -29 -6q-11 0 -18 4.5t-7 9.5v260q0 10 7 10h183q4 0 4 -12z" />
    <glyph glyph-name="quotedblleft" unicode="&#x201c;" horiz-adv-x="487" 
d="M449 408q0 -5 -7 -9.5t-18 -4.5q-26 0 -29 6q-13 26 -138 251q-2 6 -2 15q0 12 4 12h183q7 0 7 -10v-260zM215 408q0 -5 -7 -9.5t-18 -4.5q-26 0 -29 6q-13 26 -138 251q-2 6 -2 15q0 12 4 12h183q7 0 7 -10v-260z" />
    <glyph glyph-name="quotedblright" unicode="&#x201d;" horiz-adv-x="488" 
d="M466 666q0 -9 -2 -15q-125 -225 -138 -251q-3 -6 -29 -6q-11 0 -18 4.5t-7 9.5v260q0 10 7 10h183q4 0 4 -12zM232 666q0 -9 -2 -15q-125 -225 -138 -251q-3 -6 -29 -6q-11 0 -18 4.5t-7 9.5v260q0 10 7 10h183q4 0 4 -12z" />
    <glyph glyph-name="quotedblbase" unicode="&#x201e;" horiz-adv-x="487" 
d="M466 166q0 -9 -2 -15q-125 -225 -138 -251q-3 -6 -29 -6q-11 0 -18 4.5t-7 9.5v260q0 10 7 10h183q4 0 4 -12zM232 166q0 -9 -2 -15q-125 -225 -138 -251q-3 -6 -29 -6q-11 0 -18 4.5t-7 9.5v260q0 10 7 10h183q4 0 4 -12z" />
    <glyph glyph-name="dagger" unicode="&#x2020;" horiz-adv-x="547" 
d="M530 370q0 -13 -15 -12q-110 4 -159 4q0 -27 -5.5 -236t-5.5 -277q0 -9 -2 -11.5t-10 -2.5h-118q-8 0 -9.5 1.5t-1.5 12.5q0 52 -5.5 270.5t-5.5 245.5q-46 -1 -160 -7q-9 -1 -11.5 1.5t-2.5 10.5v124q0 8 2.5 9.5t11.5 1.5q77 -3 160 -3q7 131 7 176q0 9 2 11.5t10 2.5
h125q7 0 9.5 -2.5t2.5 -11.5q0 -79 9 -178q65 0 157 5q9 1 12 -1t3 -10v-124z" />
    <glyph glyph-name="daggerdbl" unicode="&#x2021;" horiz-adv-x="556" 
d="M515 84q0 -12 -13 -12q-24 0 -76 2t-77 2q-5 -71 -5 -176q0 -15 -11 -15h-116q-7 0 -9 2.5t-2 12.5q0 101 -7 178q-20 0 -69 -3t-78 -3q-13 0 -13 12v118q0 11 13 11l150 -3v158q-115 -5 -151 -7q-8 -1 -10 1.5t-2 10.5v118q0 11 12 11q24 0 74 -1.5t76 -1.5q5 93 5 176
q0 14 11 14h116q11 0 11 -14q0 -114 7 -178q23 0 73 2.5t77 2.5q9 0 11.5 -1.5t2.5 -9.5v-118q0 -7 -2.5 -10t-11.5 -2l-154 7v-158q119 2 155 3q9 1 11 -1t2 -10v-118z" />
    <glyph glyph-name="bullet" unicode="&#x2022;" horiz-adv-x="640" 
d="M614 286q0 -122 -87 -208.5t-209 -86.5t-208.5 86.5t-86.5 208.5t86.5 209t208.5 87t209 -87t87 -209z" />
    <glyph glyph-name="ellipsis" unicode="&#x2026;" horiz-adv-x="908" 
d="M845 22q0 -13 -3.5 -17.5t-14.5 -4.5h-141q-18 0 -18 20v140q0 25 20 25h141q10 0 13 -3t3 -13v-147zM541 22q0 -13 -3.5 -17.5t-14.5 -4.5h-141q-18 0 -18 20v140q0 25 20 25h141q10 0 13 -3t3 -13v-147zM239 22q0 -13 -3.5 -17.5t-14.5 -4.5h-141q-18 0 -18 20v140
q0 25 20 25h141q10 0 13 -3t3 -13v-147z" />
    <glyph glyph-name="perthousand" unicode="&#x2030;" horiz-adv-x="1256" 
d="M1221 174q0 -77 -52.5 -129t-134.5 -52q-83 0 -137 51.5t-54 129.5q0 77 54 129t136 52q83 0 135.5 -52t52.5 -129zM801 174q0 -77 -52.5 -129t-134.5 -52q-83 0 -137 51.5t-54 129.5q0 77 54 129t136 52q83 0 135.5 -52t52.5 -129zM718 651l-326.5 -401t-200.5 -266
q-14 1 -42 20.5t-27 28.5l320.5 387t206.5 267q16 -7 69 -36zM401 497q0 -77 -52.5 -129t-134.5 -52q-83 0 -137 52t-54 129t53.5 129t136.5 52t135.5 -51.5t52.5 -129.5zM1101 172q0 28 -20 49t-50 21t-50 -21t-20 -49t19.5 -48.5t50.5 -20.5q30 0 50 20.5t20 48.5z
M681 172q0 28 -20 49t-50 21t-50 -21t-20 -49t19.5 -48.5t50.5 -20.5q30 0 50 20.5t20 48.5zM281 497q0 28 -20 49t-50 21t-50 -21t-20 -49t19.5 -48.5t50.5 -20.5q30 0 50 20.5t20 48.5z" />
    <glyph glyph-name="guilsinglleft" unicode="&#x2039;" horiz-adv-x="324" 
d="M272 8q0 -10 -7 -10q-5 0 -9 5l-228 237q-2 2 -2 14t2 14l228 238q4 5 9 5q7 0 7 -10v-166q0 -15 -8 -23l-71 -57l71 -59q8 -6 8 -21v-167z" />
    <glyph glyph-name="guilsinglright" unicode="&#x203a;" horiz-adv-x="324" 
d="M299 254q0 -12 -2 -14l-228 -238q-4 -5 -9 -5q-7 0 -7 10v166q0 15 8 23l71 57l-71 59q-8 6 -8 21v167q0 10 7 10q5 0 9 -5l228 -237q2 -2 2 -14z" />
    <glyph glyph-name="fraction" unicode="&#x2044;" horiz-adv-x="349" 
d="M468 636q-315 -475 -494 -711q-8 -12 -13 -10q-4 3 -20 14l-30.5 21.5l-22.5 16.5q-10 7 -8 11l501 710q10 15 15 12q12 -6 38.5 -23t33.5 -23q8 -6 0 -18z" />
    <glyph glyph-name="trademark" unicode="&#x2122;" horiz-adv-x="714" 
d="M674 352q0 -13 -4 -13h-95q-5 0 -5 7l-4 120l-59 -56q-3 -3 -8 -3t-8 3l-59 56l-4 -120q0 -7 -5 -7h-95q-4 0 -4 13q0 50 5 162.5t5 164.5q0 4 3 5t4 -1q76 -58 158 -136q1 1 36 32l66.5 58.5t55.5 45.5q7 3 7 -4q0 -52 5 -164.5t5 -162.5zM307 581q0 -4 -4 -4l-80 4
q3 -198 3 -237q0 -5 -5 -5h-117h-1q-2 0 -2.5 0.5t-0.5 4.5l3 237l-83 -4q-4 0 -4 4v93q0 4 5 4h281q5 0 5 -4v-93z" />
    <glyph glyph-name="partialdiff" unicode="&#x2202;" 
d="M793 300q0 -154 -109.5 -263.5t-263.5 -109.5t-263.5 109.5t-109.5 263.5t109.5 263.5t263.5 109.5t263.5 -109.5t109.5 -263.5zM693 491l-48 -29l-9 78l-65 -109l-127 53l23 54l40 40l-103 33l-106 -73l82 -13l2 -49l-107 -51l-100 97l9 -104l-48 33l73 -189l193 38
l-127 -224l21 -51l48 24l67 220l-26 -218l46 -36l36 41l-25 215l63 -209l57 -9l16 43l-129 206l193 -22zM478 573l-32 -35l-35 -68l-13 48l12 17l-68 11l26 13l17 -5l-1 19l28 19zM658 436l-30 -128l-35 38l-38 -26l-28 30l-31 -20l-45 40l-35 -47l-52 44l-22 -53l-37 28
l-12 -35l-38 29l-34 -39l-38 91l33 -14l11 58l38 -48l128 53l21 -52l16 62l148 -56l47 59l8 -40zM559 94l-32 -18l-30 100zM448 53l-40 1l18 142zM353 160l-28 -107l-29 17z" />
    <glyph glyph-name="product" unicode="&#x220f;" 
d="M793 300q0 -154 -109.5 -263.5t-263.5 -109.5t-263.5 109.5t-109.5 263.5t109.5 263.5t263.5 109.5t263.5 -109.5t109.5 -263.5zM693 491l-48 -29l-9 78l-65 -109l-127 53l23 54l40 40l-103 33l-106 -73l82 -13l2 -49l-107 -51l-100 97l9 -104l-48 33l73 -189l193 38
l-127 -224l21 -51l48 24l67 220l-26 -218l46 -36l36 41l-25 215l63 -209l57 -9l16 43l-129 206l193 -22zM478 573l-32 -35l-35 -68l-13 48l12 17l-68 11l26 13l17 -5l-1 19l28 19zM658 436l-30 -128l-35 38l-38 -26l-28 30l-31 -20l-45 40l-35 -47l-52 44l-22 -53l-37 28
l-12 -35l-38 29l-34 -39l-38 91l33 -14l11 58l38 -48l128 53l21 -52l16 62l148 -56l47 59l8 -40zM559 94l-32 -18l-30 100zM448 53l-40 1l18 142zM353 160l-28 -107l-29 17z" />
    <glyph glyph-name="summation" unicode="&#x2211;" 
d="M793 300q0 -154 -109.5 -263.5t-263.5 -109.5t-263.5 109.5t-109.5 263.5t109.5 263.5t263.5 109.5t263.5 -109.5t109.5 -263.5zM693 491l-48 -29l-9 78l-65 -109l-127 53l23 54l40 40l-103 33l-106 -73l82 -13l2 -49l-107 -51l-100 97l9 -104l-48 33l73 -189l193 38
l-127 -224l21 -51l48 24l67 220l-26 -218l46 -36l36 41l-25 215l63 -209l57 -9l16 43l-129 206l193 -22zM478 573l-32 -35l-35 -68l-13 48l12 17l-68 11l26 13l17 -5l-1 19l28 19zM658 436l-30 -128l-35 38l-38 -26l-28 30l-31 -20l-45 40l-35 -47l-52 44l-22 -53l-37 28
l-12 -35l-38 29l-34 -39l-38 91l33 -14l11 58l38 -48l128 53l21 -52l16 62l148 -56l47 59l8 -40zM559 94l-32 -18l-30 100zM448 53l-40 1l18 142zM353 160l-28 -107l-29 17z" />
    <glyph glyph-name="minus" unicode="&#x2212;" 
d="M793 300q0 -154 -109.5 -263.5t-263.5 -109.5t-263.5 109.5t-109.5 263.5t109.5 263.5t263.5 109.5t263.5 -109.5t109.5 -263.5zM693 491l-48 -29l-9 78l-65 -109l-127 53l23 54l40 40l-103 33l-106 -73l82 -13l2 -49l-107 -51l-100 97l9 -104l-48 33l73 -189l193 38
l-127 -224l21 -51l48 24l67 220l-26 -218l46 -36l36 41l-25 215l63 -209l57 -9l16 43l-129 206l193 -22zM478 573l-32 -35l-35 -68l-13 48l12 17l-68 11l26 13l17 -5l-1 19l28 19zM658 436l-30 -128l-35 38l-38 -26l-28 30l-31 -20l-45 40l-35 -47l-52 44l-22 -53l-37 28
l-12 -35l-38 29l-34 -39l-38 91l33 -14l11 58l38 -48l128 53l21 -52l16 62l148 -56l47 59l8 -40zM559 94l-32 -18l-30 100zM448 53l-40 1l18 142zM353 160l-28 -107l-29 17z" />
    <glyph glyph-name="radical" unicode="&#x221a;" horiz-adv-x="663" 
d="M664 663q-77 -139 -168.5 -337t-148.5 -356q-1 -5 -2.5 -7.5t-3.5 -2.5h-3t-4 1q-44 15 -58.5 24t-17.5 19q-90 247 -237 247q-9 2 -8.5 17t6.5 25q52 95 78 170q10 28 33 22q70 -16 134 -99.5t83 -194.5q31 103 101.5 253t127.5 255q5 9 7.5 11t8.5 0q62 -22 72 -29
q6 -4 6 -6t-6 -12z" />
    <glyph glyph-name="infinity" unicode="&#x221e;" horiz-adv-x="942" 
d="M882 573q0 -11 -9 -11h-153q-8 0 -8 13v104q0 13 7 13h153q6 0 8 -2t2 -11v-106zM882 11q0 -11 -9 -11h-153q-6 0 -7 2t-1 12v479q0 9 1 10.5t6 1.5h153q6 0 8 -1.5t2 -10.5v-482zM677 628q-14 -19 -37 -57q-5 -11 -11 -5q-12 23 -40 23q-16 0 -26.5 -11t-10.5 -31v-36
q0 -6 5 -6h74q6 0 7.5 -1.5t1.5 -6.5v-104q0 -16 -11 -16h-67v-366q0 -8 -1.5 -9.5t-7.5 -1.5h-154q-7 0 -7 13v365h-40q-4 0 -5.5 0.5t-3 3t-1.5 7.5v104q0 12 8 12h42v53q0 69 35 108t108 39q38 0 66.5 -9.5t42.5 -19.5t30 -28q10 -10 3 -20zM351 628q-14 -19 -37 -57
q-5 -11 -11 -5q-12 23 -40 23q-16 0 -26.5 -11t-10.5 -31v-36q0 -6 5 -6h74q6 0 7.5 -1.5t1.5 -6.5v-104q0 -16 -11 -16h-67v-366q0 -8 -1.5 -9.5t-7.5 -1.5h-154q-7 0 -7 13v365h-40q-4 0 -5.5 0.5t-3 3t-1.5 7.5v104q0 12 8 12h42v53q0 69 35 108t108 39q38 0 66.5 -9.5
t42.5 -19.5t30 -28q10 -10 3 -20z" />
    <glyph glyph-name="integral" unicode="&#x222b;" 
d="M793 300q0 -154 -109.5 -263.5t-263.5 -109.5t-263.5 109.5t-109.5 263.5t109.5 263.5t263.5 109.5t263.5 -109.5t109.5 -263.5zM693 491l-48 -29l-9 78l-65 -109l-127 53l23 54l40 40l-103 33l-106 -73l82 -13l2 -49l-107 -51l-100 97l9 -104l-48 33l73 -189l193 38
l-127 -224l21 -51l48 24l67 220l-26 -218l46 -36l36 41l-25 215l63 -209l57 -9l16 43l-129 206l193 -22zM478 573l-32 -35l-35 -68l-13 48l12 17l-68 11l26 13l17 -5l-1 19l28 19zM658 436l-30 -128l-35 38l-38 -26l-28 30l-31 -20l-45 40l-35 -47l-52 44l-22 -53l-37 28
l-12 -35l-38 29l-34 -39l-38 91l33 -14l11 58l38 -48l128 53l21 -52l16 62l148 -56l47 59l8 -40zM559 94l-32 -18l-30 100zM448 53l-40 1l18 142zM353 160l-28 -107l-29 17z" />
    <glyph glyph-name="approxequal" unicode="&#x2248;" 
d="M793 300q0 -154 -109.5 -263.5t-263.5 -109.5t-263.5 109.5t-109.5 263.5t109.5 263.5t263.5 109.5t263.5 -109.5t109.5 -263.5zM693 491l-48 -29l-9 78l-65 -109l-127 53l23 54l40 40l-103 33l-106 -73l82 -13l2 -49l-107 -51l-100 97l9 -104l-48 33l73 -189l193 38
l-127 -224l21 -51l48 24l67 220l-26 -218l46 -36l36 41l-25 215l63 -209l57 -9l16 43l-129 206l193 -22zM478 573l-32 -35l-35 -68l-13 48l12 17l-68 11l26 13l17 -5l-1 19l28 19zM658 436l-30 -128l-35 38l-38 -26l-28 30l-31 -20l-45 40l-35 -47l-52 44l-22 -53l-37 28
l-12 -35l-38 29l-34 -39l-38 91l33 -14l11 58l38 -48l128 53l21 -52l16 62l148 -56l47 59l8 -40zM559 94l-32 -18l-30 100zM448 53l-40 1l18 142zM353 160l-28 -107l-29 17z" />
    <glyph glyph-name="notequal" unicode="&#x2260;" horiz-adv-x="652" 
d="M677 628q-14 -19 -37 -57q-5 -11 -11 -5q-12 23 -40 23q-16 0 -26.5 -11t-10.5 -31v-36q0 -6 5 -6h74q6 0 7.5 -1.5t1.5 -6.5v-104q0 -16 -11 -16h-67v-366q0 -8 -1.5 -9.5t-7.5 -1.5h-154q-7 0 -7 13v365h-40q-4 0 -5.5 0.5t-3 3t-1.5 7.5v104q0 12 8 12h42v53
q0 69 35 108t108 39q38 0 66.5 -9.5t42.5 -19.5t30 -28q10 -10 3 -20zM351 628q-14 -19 -37 -57q-5 -11 -11 -5q-12 23 -40 23q-16 0 -26.5 -11t-10.5 -31v-36q0 -6 5 -6h74q6 0 7.5 -1.5t1.5 -6.5v-104q0 -16 -11 -16h-67v-366q0 -8 -1.5 -9.5t-7.5 -1.5h-154q-7 0 -7 13
v365h-40q-4 0 -5.5 0.5t-3 3t-1.5 7.5v104q0 12 8 12h42v53q0 69 35 108t108 39q38 0 66.5 -9.5t42.5 -19.5t30 -28q10 -10 3 -20z" />
    <glyph glyph-name="lessequal" unicode="&#x2264;" 
d="M793 300q0 -154 -109.5 -263.5t-263.5 -109.5t-263.5 109.5t-109.5 263.5t109.5 263.5t263.5 109.5t263.5 -109.5t109.5 -263.5zM693 491l-48 -29l-9 78l-65 -109l-127 53l23 54l40 40l-103 33l-106 -73l82 -13l2 -49l-107 -51l-100 97l9 -104l-48 33l73 -189l193 38
l-127 -224l21 -51l48 24l67 220l-26 -218l46 -36l36 41l-25 215l63 -209l57 -9l16 43l-129 206l193 -22zM478 573l-32 -35l-35 -68l-13 48l12 17l-68 11l26 13l17 -5l-1 19l28 19zM658 436l-30 -128l-35 38l-38 -26l-28 30l-31 -20l-45 40l-35 -47l-52 44l-22 -53l-37 28
l-12 -35l-38 29l-34 -39l-38 91l33 -14l11 58l38 -48l128 53l21 -52l16 62l148 -56l47 59l8 -40zM559 94l-32 -18l-30 100zM448 53l-40 1l18 142zM353 160l-28 -107l-29 17z" />
    <glyph glyph-name="greaterequal" unicode="&#x2265;" 
d="M793 300q0 -154 -109.5 -263.5t-263.5 -109.5t-263.5 109.5t-109.5 263.5t109.5 263.5t263.5 109.5t263.5 -109.5t109.5 -263.5zM693 491l-48 -29l-9 78l-65 -109l-127 53l23 54l40 40l-103 33l-106 -73l82 -13l2 -49l-107 -51l-100 97l9 -104l-48 33l73 -189l193 38
l-127 -224l21 -51l48 24l67 220l-26 -218l46 -36l36 41l-25 215l63 -209l57 -9l16 43l-129 206l193 -22zM478 573l-32 -35l-35 -68l-13 48l12 17l-68 11l26 13l17 -5l-1 19l28 19zM658 436l-30 -128l-35 38l-38 -26l-28 30l-31 -20l-45 40l-35 -47l-52 44l-22 -53l-37 28
l-12 -35l-38 29l-34 -39l-38 91l33 -14l11 58l38 -48l128 53l21 -52l16 62l148 -56l47 59l8 -40zM559 94l-32 -18l-30 100zM448 53l-40 1l18 142zM353 160l-28 -107l-29 17z" />
    <glyph glyph-name="lozenge" unicode="&#x25ca;" 
d="M793 300q0 -154 -109.5 -263.5t-263.5 -109.5t-263.5 109.5t-109.5 263.5t109.5 263.5t263.5 109.5t263.5 -109.5t109.5 -263.5zM693 491l-48 -29l-9 78l-65 -109l-127 53l23 54l40 40l-103 33l-106 -73l82 -13l2 -49l-107 -51l-100 97l9 -104l-48 33l73 -189l193 38
l-127 -224l21 -51l48 24l67 220l-26 -218l46 -36l36 41l-25 215l63 -209l57 -9l16 43l-129 206l193 -22zM478 573l-32 -35l-35 -68l-13 48l12 17l-68 11l26 13l17 -5l-1 19l28 19zM658 436l-30 -128l-35 38l-38 -26l-28 30l-31 -20l-45 40l-35 -47l-52 44l-22 -53l-37 28
l-12 -35l-38 29l-34 -39l-38 91l33 -14l11 58l38 -48l128 53l21 -52l16 62l148 -56l47 59l8 -40zM559 94l-32 -18l-30 100zM448 53l-40 1l18 142zM353 160l-28 -107l-29 17z" />
    <glyph glyph-name="apple" unicode="&#xf8ff;" 
d="M793 300q0 -154 -109.5 -263.5t-263.5 -109.5t-263.5 109.5t-109.5 263.5t109.5 263.5t263.5 109.5t263.5 -109.5t109.5 -263.5zM693 491l-48 -29l-9 78l-65 -109l-127 53l23 54l40 40l-103 33l-106 -73l82 -13l2 -49l-107 -51l-100 97l9 -104l-48 33l73 -189l193 38
l-127 -224l21 -51l48 24l67 220l-26 -218l46 -36l36 41l-25 215l63 -209l57 -9l16 43l-129 206l193 -22zM478 573l-32 -35l-35 -68l-13 48l12 17l-68 11l26 13l17 -5l-1 19l28 19zM658 436l-30 -128l-35 38l-38 -26l-28 30l-31 -20l-45 40l-35 -47l-52 44l-22 -53l-37 28
l-12 -35l-38 29l-34 -39l-38 91l33 -14l11 58l38 -48l128 53l21 -52l16 62l148 -56l47 59l8 -40zM559 94l-32 -18l-30 100zM448 53l-40 1l18 142zM353 160l-28 -107l-29 17z" />
    <glyph glyph-name="fi" unicode="&#xfb01;" horiz-adv-x="616" 
d="M556 573q0 -11 -9 -11h-153q-8 0 -8 13v104q0 13 7 13h153q6 0 8 -2t2 -11v-106zM556 11q0 -11 -9 -11h-153q-5 0 -6.5 2t-1.5 12v479q0 9 1 10.5t6 1.5h153q6 0 8 -1.5t2 -10.5v-482zM351 628q-14 -19 -37 -57q-5 -11 -11 -5q-12 23 -40 23q-16 0 -26.5 -11t-10.5 -31
v-36q0 -6 5 -6h74q6 0 7.5 -1.5t1.5 -6.5v-104q0 -16 -11 -16h-67v-366q0 -8 -1.5 -9.5t-7.5 -1.5h-154q-7 0 -7 13v365h-40q-4 0 -5.5 0.5t-3 3t-1.5 7.5v104q0 12 8 12h42v53q0 69 35 108t108 39q38 0 66.5 -9.5t42.5 -19.5t30 -28q10 -10 3 -20z" />
    <glyph glyph-name="fl" unicode="&#xfb02;" horiz-adv-x="616" 
d="M556 11q0 -11 -8 -11h-154q-5 0 -6.5 2t-1.5 12v665q0 9 1 11t7 2h153q6 0 7.5 -2t1.5 -11v-668zM351 628q-14 -19 -37 -57q-5 -11 -11 -5q-12 23 -40 23q-16 0 -26.5 -11t-10.5 -31v-36q0 -6 5 -6h74q6 0 7.5 -1.5t1.5 -6.5v-104q0 -16 -11 -16h-67v-366q0 -8 -1.5 -9.5
t-7.5 -1.5h-154q-7 0 -7 13v365h-40q-4 0 -5.5 0.5t-3 3t-1.5 7.5v104q0 12 8 12h42v53q0 69 35 108t108 39q38 0 66.5 -9.5t42.5 -19.5t30 -28q10 -10 3 -20z" />
    <glyph glyph-name="NUL" horiz-adv-x="0" 
 />
    </font>
</defs>
</svg>
